<svg width="173" height="48" viewBox="0 0 173 48" fill="none" xmlns="http://www.w3.org/2000/svg">
<path d="M4.16 13.456C4.16 13.8613 4.18133 14.192 4.224 14.448C4.26667 14.704 4.352 14.9013 4.48 15.04C4.608 15.1787 4.784 15.2747 5.008 15.328C5.232 15.3707 5.53067 15.392 5.904 15.392V16H0.72V15.392C1.09333 15.392 1.392 15.3707 1.616 15.328C1.85067 15.2747 2.032 15.184 2.16 15.056C2.288 14.9173 2.37333 14.7307 2.416 14.496C2.45867 14.2507 2.48 13.9413 2.48 13.568V6.112C2.48 5.70667 2.45333 5.38667 2.4 5.152C2.35733 4.90667 2.272 4.72 2.144 4.592C2.02667 4.464 1.86667 4.384 1.664 4.352C1.46133 4.30933 1.2 4.288 0.88 4.288V3.68H5.744V4.288C5.424 4.288 5.16267 4.30933 4.96 4.352C4.75733 4.39467 4.592 4.48533 4.464 4.624C4.34667 4.76267 4.26667 4.96 4.224 5.216C4.18133 5.46133 4.16 5.79733 4.16 6.224V10.176L8.16 5.36C8.37333 5.09333 8.48 4.88533 8.48 4.736C8.48 4.43733 8.176 4.288 7.568 4.288V3.68H11.424V4.272C11.2107 4.272 11.024 4.288 10.864 4.32C10.704 4.34133 10.544 4.39467 10.384 4.48C10.2347 4.56533 10.0747 4.688 9.904 4.848C9.73333 5.008 9.536 5.216 9.312 5.472L6.304 8.944L10.976 14.56C11.2427 14.8693 11.4933 15.088 11.728 15.216C11.9627 15.3333 12.2773 15.392 12.672 15.392V16H7.76V15.392C8.176 15.392 8.47467 15.36 8.656 15.296C8.83733 15.2213 8.928 15.1093 8.928 14.96C8.928 14.8747 8.88533 14.752 8.8 14.592C8.71467 14.432 8.576 14.2347 8.384 14L5.264 10.16L4.16 11.44V13.456ZM15.7968 13.456C15.7968 13.872 15.8128 14.208 15.8448 14.464C15.8874 14.7093 15.9621 14.9067 16.0688 15.056C16.1754 15.1947 16.3248 15.2907 16.5168 15.344C16.7088 15.3973 16.9648 15.4293 17.2848 15.44V16H12.6928V15.44C13.0128 15.4293 13.2741 15.3973 13.4768 15.344C13.6794 15.28 13.8341 15.184 13.9408 15.056C14.0581 14.9173 14.1328 14.7307 14.1648 14.496C14.2074 14.2507 14.2288 13.9413 14.2288 13.568V11.52C14.2288 10.9013 14.2181 10.3947 14.1968 10C14.1861 9.59467 14.1594 9.31733 14.1168 9.168C14.0634 8.92267 13.9408 8.75733 13.7488 8.672C13.5568 8.576 13.1941 8.528 12.6608 8.528V7.968L15.7968 7.36V13.456ZM13.9568 4.112C13.9568 3.83467 14.0528 3.6 14.2448 3.408C14.4368 3.216 14.6714 3.12 14.9488 3.12C15.2261 3.12 15.4608 3.216 15.6528 3.408C15.8448 3.6 15.9408 3.83467 15.9408 4.112C15.9408 4.38933 15.8448 4.624 15.6528 4.816C15.4608 5.008 15.2261 5.104 14.9488 5.104C14.6714 5.104 14.4368 5.008 14.2448 4.816C14.0528 4.624 13.9568 4.38933 13.9568 4.112ZM20.7379 13.488C20.7379 13.9253 20.7485 14.272 20.7699 14.528C20.7912 14.7733 20.8445 14.9653 20.9299 15.104C21.0259 15.232 21.1592 15.3173 21.3299 15.36C21.5112 15.4027 21.7565 15.4347 22.0659 15.456V16H17.8739V15.456C18.1725 15.4347 18.4072 15.4027 18.5779 15.36C18.7592 15.3173 18.8979 15.232 18.9939 15.104C19.0899 14.976 19.1485 14.7947 19.1699 14.56C19.2019 14.3253 19.2179 14.0053 19.2179 13.6V11.472C19.2179 10.2027 19.1859 9.42933 19.1219 9.152C19.0899 9.01333 19.0472 8.90133 18.9939 8.816C18.9512 8.72 18.8819 8.65067 18.7859 8.608C18.6899 8.55467 18.5672 8.52267 18.4179 8.512C18.2685 8.49067 18.0765 8.48 17.8419 8.48V7.968L20.4019 7.36L20.5939 8.944H20.6579C21.0632 8.44267 21.5379 8.05333 22.0819 7.776C22.6259 7.49867 23.2179 7.36 23.8579 7.36C24.3485 7.36 24.7965 7.44 25.2019 7.6C25.6072 7.76 25.9165 7.97867 26.1299 8.256C26.3112 8.50133 26.4392 8.82133 26.5139 9.216C26.5885 9.6 26.6259 10.1333 26.6259 10.816V13.488C26.6259 13.9253 26.6365 14.272 26.6579 14.528C26.6899 14.7733 26.7485 14.9653 26.8339 15.104C26.9192 15.232 27.0472 15.3173 27.2179 15.36C27.3992 15.4027 27.6339 15.4347 27.9219 15.456V16H23.7779V15.456C24.0765 15.4453 24.3112 15.4187 24.4819 15.376C24.6632 15.3227 24.7965 15.232 24.8819 15.104C24.9779 14.976 25.0365 14.7947 25.0579 14.56C25.0899 14.3147 25.1059 13.9947 25.1059 13.6V11.488C25.1059 10.88 25.0739 10.368 25.0099 9.952C24.9459 9.536 24.8392 9.2 24.6899 8.944C24.5512 8.688 24.3645 8.50667 24.1299 8.4C23.8952 8.28267 23.6125 8.224 23.2819 8.224C22.8019 8.224 22.3592 8.352 21.9539 8.608C21.5592 8.85333 21.2499 9.19467 21.0259 9.632C20.9725 9.73867 20.9245 9.84 20.8819 9.936C20.8499 10.032 20.8232 10.144 20.8019 10.272C20.7805 10.4 20.7645 10.5493 20.7539 10.72C20.7432 10.88 20.7379 11.088 20.7379 11.344V13.488ZM35.7371 14.656H35.6731C35.2891 15.2 34.8785 15.5893 34.4411 15.824C34.0145 16.048 33.5078 16.16 32.9211 16.16C32.3131 16.16 31.7531 16.0533 31.2411 15.84C30.7398 15.616 30.3025 15.312 29.9291 14.928C29.5665 14.5333 29.2785 14.064 29.0651 13.52C28.8625 12.976 28.7611 12.384 28.7611 11.744C28.7611 11.1147 28.8625 10.5333 29.0651 10C29.2785 9.456 29.5665 8.992 29.9291 8.608C30.3025 8.21333 30.7451 7.90933 31.2571 7.696C31.7691 7.472 32.3238 7.36 32.9211 7.36C33.4331 7.36 33.8865 7.44533 34.2811 7.616C34.6865 7.78667 35.0758 8.05867 35.4491 8.432V6.8C35.4491 6.192 35.4385 5.68533 35.4171 5.28C35.4065 4.87467 35.3851 4.59733 35.3531 4.448C35.2998 4.21333 35.1505 4.048 34.9051 3.952C34.6598 3.856 34.2598 3.808 33.7051 3.808V3.328L36.9851 2.72V11.952C36.9851 12.688 36.9905 13.296 37.0011 13.776C37.0118 14.2453 37.0438 14.5813 37.0971 14.784C37.1291 14.912 37.1665 15.0187 37.2091 15.104C37.2625 15.1893 37.3318 15.2587 37.4171 15.312C37.5131 15.3547 37.6358 15.3867 37.7851 15.408C37.9451 15.4293 38.1478 15.44 38.3931 15.44V15.984L35.7371 16.16V14.656ZM35.4171 11.12C35.4171 10.5653 35.3851 10.144 35.3211 9.856C35.2678 9.568 35.1558 9.31733 34.9851 9.104C34.7398 8.784 34.4251 8.544 34.0411 8.384C33.6678 8.21333 33.2945 8.128 32.9211 8.128C32.1531 8.128 31.5665 8.448 31.1611 9.088C30.7665 9.71733 30.5691 10.576 30.5691 11.664C30.5691 12.2293 30.6171 12.7413 30.7131 13.2C30.8198 13.6587 30.9691 14.0533 31.1611 14.384C31.3638 14.704 31.6091 14.9547 31.8971 15.136C32.1958 15.3067 32.5371 15.392 32.9211 15.392C33.1131 15.392 33.3051 15.3707 33.4971 15.328C33.6998 15.2853 33.8918 15.2213 34.0731 15.136C34.2651 15.04 34.4411 14.9333 34.6011 14.816C34.7611 14.688 34.8945 14.544 35.0011 14.384C35.1505 14.1493 35.2571 13.8667 35.3211 13.536C35.3851 13.2053 35.4171 12.752 35.4171 12.176V11.12ZM53.2718 6.768C53.2718 7.62133 53.0158 8.33067 52.5038 8.896C51.9918 9.46133 51.1758 9.84 50.0558 10.032L53.5918 14.288C53.8798 14.64 54.1944 14.896 54.5358 15.056C54.8878 15.2053 55.3038 15.3173 55.7838 15.392V16H52.6958L48.7758 10.976C48.6371 10.7947 48.5038 10.6507 48.3758 10.544C48.2584 10.4373 48.1304 10.3573 47.9918 10.304C47.8638 10.24 47.7091 10.2027 47.5278 10.192C47.3571 10.1707 47.1491 10.16 46.9038 10.16V13.488C46.9038 13.8827 46.9251 14.208 46.9678 14.464C47.0211 14.7093 47.1224 14.9013 47.2718 15.04C47.4318 15.1787 47.6558 15.2747 47.9438 15.328C48.2424 15.3707 48.6318 15.392 49.1118 15.392V16H43.4638V15.392C43.8371 15.3813 44.1358 15.3493 44.3598 15.296C44.5944 15.2427 44.7758 15.152 44.9038 15.024C45.0318 14.896 45.1171 14.7147 45.1598 14.48C45.2024 14.2453 45.2238 13.9413 45.2238 13.568V6.112C45.2238 5.73867 45.2024 5.44 45.1598 5.216C45.1278 4.98133 45.0531 4.8 44.9358 4.672C44.8291 4.53333 44.6691 4.44267 44.4558 4.4C44.2424 4.34667 43.9651 4.30933 43.6238 4.288V3.68H48.6478C50.1198 3.68 51.2558 3.952 52.0558 4.496C52.8664 5.04 53.2718 5.79733 53.2718 6.768ZM46.9038 9.36H48.0398C49.1064 9.36 49.8958 9.168 50.4078 8.784C50.9304 8.38933 51.1918 7.744 51.1918 6.848C51.1918 5.984 50.9838 5.36533 50.5678 4.992C50.1624 4.61867 49.5224 4.432 48.6478 4.432H47.1758C46.9944 4.432 46.9038 4.52267 46.9038 4.704V9.36ZM63.2758 14.512C62.3691 15.6107 61.2438 16.16 59.8998 16.16C59.2704 16.16 58.6998 16.0587 58.1878 15.856C57.6758 15.6427 57.2331 15.3493 56.8598 14.976C56.4971 14.592 56.2144 14.1387 56.0118 13.616C55.8091 13.0827 55.7078 12.496 55.7078 11.856C55.7078 11.2053 55.8144 10.6027 56.0278 10.048C56.2411 9.49333 56.5398 9.01867 56.9238 8.624C57.3184 8.22933 57.7824 7.92 58.3158 7.696C58.8598 7.472 59.4518 7.36 60.0918 7.36C61.1264 7.36 61.9264 7.64267 62.4918 8.208C63.0571 8.76267 63.3398 9.56267 63.3398 10.608C63.3398 10.7573 63.3078 10.848 63.2438 10.88C63.1904 10.912 63.0571 10.928 62.8438 10.928H57.5798C57.5584 11.0133 57.5424 11.12 57.5318 11.248C57.5211 11.3653 57.5158 11.4987 57.5158 11.648C57.5158 12.2027 57.5798 12.7093 57.7078 13.168C57.8464 13.616 58.0384 14 58.2838 14.32C58.5398 14.64 58.8384 14.8907 59.1798 15.072C59.5318 15.2427 59.9211 15.328 60.3478 15.328C60.7958 15.328 61.2118 15.232 61.5958 15.04C61.9798 14.8373 62.3744 14.512 62.7798 14.064L63.2758 14.512ZM60.6358 10.192C60.8491 10.192 61.0198 10.1867 61.1478 10.176C61.2758 10.1653 61.3718 10.144 61.4358 10.112C61.4998 10.08 61.5424 10.0373 61.5638 9.984C61.5851 9.92 61.5958 9.84 61.5958 9.744C61.5958 9.25333 61.4358 8.864 61.1158 8.576C60.8064 8.27733 60.3798 8.128 59.8358 8.128C58.6838 8.128 57.9691 8.816 57.6918 10.192H60.6358ZM68.1596 12.56C68.6076 12.56 68.9543 12.3573 69.1996 11.952C69.4556 11.5467 69.5836 10.976 69.5836 10.24C69.5836 9.51467 69.4556 8.95467 69.1996 8.56C68.9543 8.15467 68.6023 7.952 68.1436 7.952C67.685 7.952 67.317 8.15467 67.0396 8.56C66.773 8.96533 66.6396 9.52 66.6396 10.224C66.6396 10.928 66.7783 11.4933 67.0556 11.92C67.333 12.3467 67.701 12.56 68.1596 12.56ZM67.2796 14.432C67.5356 14.4533 67.7703 14.4747 67.9836 14.496C68.197 14.5173 68.405 14.5387 68.6076 14.56C68.821 14.5813 69.029 14.608 69.2316 14.64C69.445 14.672 69.6743 14.704 69.9196 14.736C70.6876 14.8533 71.301 15.152 71.7596 15.632C72.229 16.1013 72.4636 16.6933 72.4636 17.408C72.4636 18.304 72.1063 18.9867 71.3916 19.456C70.6876 19.9253 69.6636 20.16 68.3196 20.16C67.7223 20.16 67.173 20.1067 66.6716 20C66.181 19.8933 65.7596 19.7387 65.4076 19.536C65.0556 19.344 64.7783 19.1093 64.5756 18.832C64.3836 18.5547 64.2876 18.2507 64.2876 17.92C64.2876 17.696 64.325 17.488 64.3996 17.296C64.4743 17.104 64.5756 16.9333 64.7036 16.784C64.8316 16.6453 64.981 16.5333 65.1516 16.448C65.333 16.3627 65.5196 16.32 65.7116 16.32C66.0743 16.32 66.3996 16.432 66.6876 16.656C66.3996 16.72 66.165 16.8747 65.9836 17.12C65.8023 17.376 65.7116 17.664 65.7116 17.984C65.7116 18.4533 65.941 18.816 66.3996 19.072C66.869 19.328 67.5303 19.456 68.3836 19.456C70.2076 19.456 71.1196 18.896 71.1196 17.776C71.1196 17.3493 70.9756 16.992 70.6876 16.704C70.3996 16.4267 70.0583 16.2613 69.6636 16.208C69.4076 16.176 69.141 16.1387 68.8636 16.096C68.597 16.064 68.3303 16.032 68.0636 16C67.8076 15.968 67.5676 15.9413 67.3436 15.92C67.1196 15.8987 66.9383 15.8773 66.7996 15.856C66.2023 15.792 65.749 15.632 65.4396 15.376C65.1303 15.12 64.9756 14.768 64.9756 14.32C64.9756 13.9467 65.1303 13.616 65.4396 13.328C65.749 13.04 66.1383 12.8587 66.6076 12.784V12.72C66.373 12.624 66.1543 12.4907 65.9516 12.32C65.749 12.1387 65.573 11.936 65.4236 11.712C65.285 11.488 65.173 11.248 65.0876 10.992C65.0023 10.7253 64.9596 10.4533 64.9596 10.176C64.9596 9.77067 65.0343 9.39733 65.1836 9.056C65.3436 8.71467 65.5623 8.42133 65.8396 8.176C66.1276 7.92 66.4636 7.72267 66.8476 7.584C67.2316 7.43467 67.653 7.36 68.1116 7.36C68.581 7.36 69.0236 7.43467 69.4396 7.584C69.8556 7.72267 70.213 7.93067 70.5116 8.208C70.8743 7.90933 71.1943 7.696 71.4716 7.568C71.749 7.42933 72.0103 7.36 72.2556 7.36C72.6396 7.36 72.9436 7.45067 73.1676 7.632C73.4023 7.80267 73.5196 8.03733 73.5196 8.336C73.5196 8.51733 73.4556 8.66133 73.3276 8.768C73.2103 8.87467 73.061 8.928 72.8796 8.928C72.7303 8.928 72.6076 8.90133 72.5116 8.848C72.4156 8.79467 72.325 8.74133 72.2396 8.688C72.165 8.624 72.085 8.56533 71.9996 8.512C71.9143 8.45867 71.8076 8.432 71.6796 8.432C71.4236 8.432 71.1623 8.52267 70.8956 8.704C71.1516 9.09867 71.2796 9.59467 71.2796 10.192C71.2796 11.0987 70.997 11.8133 70.4316 12.336C69.8663 12.848 69.0183 13.1467 67.8876 13.232C67.237 13.2853 66.7836 13.3547 66.5276 13.44C66.2716 13.5253 66.1436 13.68 66.1436 13.904C66.1436 14.0747 66.2396 14.2027 66.4316 14.288C66.6236 14.3627 66.9063 14.4107 67.2796 14.432ZM78.6178 11.264C78.0098 11.4987 77.4924 11.728 77.0658 11.952C76.6498 12.176 76.3138 12.4 76.0578 12.624C75.8018 12.848 75.6151 13.072 75.4978 13.296C75.3911 13.52 75.3378 13.7493 75.3378 13.984C75.3378 14.336 75.4551 14.624 75.6898 14.848C75.9244 15.072 76.2338 15.184 76.6178 15.184C76.8951 15.184 77.1511 15.1147 77.3858 14.976C77.6311 14.8373 77.8444 14.6507 78.0258 14.416C78.2071 14.1707 78.3511 13.888 78.4578 13.568C78.5644 13.2373 78.6178 12.8907 78.6178 12.528V11.264ZM78.6178 10.576V9.92C78.6178 8.61867 78.0631 7.968 76.9538 7.968C76.7724 7.968 76.6178 7.984 76.4898 8.016C76.3618 8.048 76.2551 8.10133 76.1698 8.176C76.0844 8.25067 76.0044 8.35733 75.9298 8.496C75.8658 8.63467 75.8018 8.80533 75.7378 9.008C75.6204 9.31733 75.5031 9.52533 75.3858 9.632C75.2791 9.728 75.1191 9.776 74.9058 9.776C74.3724 9.776 74.1058 9.50933 74.1058 8.976C74.1058 8.464 74.3778 8.06933 74.9218 7.792C75.4658 7.504 76.2391 7.36 77.2418 7.36C78.3084 7.36 79.0658 7.552 79.5138 7.936C79.9618 8.30933 80.1858 8.94933 80.1858 9.856V13.44C80.1858 14.656 80.4258 15.264 80.9058 15.264C81.0551 15.264 81.1991 15.248 81.3378 15.216C81.4764 15.1733 81.5938 15.072 81.6898 14.912L81.9138 15.296C81.7858 15.5413 81.5511 15.7493 81.2098 15.92C80.8684 16.08 80.5111 16.16 80.1378 16.16C79.6684 16.16 79.3164 16.0107 79.0818 15.712C78.8578 15.4133 78.7458 14.992 78.7458 14.448H78.6658C78.3884 14.9707 78.0044 15.3867 77.5138 15.696C77.0231 15.9947 76.4791 16.144 75.8818 16.144C75.2098 16.144 74.6818 15.9733 74.2978 15.632C73.9138 15.2907 73.7218 14.832 73.7218 14.256C73.7218 14 73.7644 13.7547 73.8498 13.52C73.9458 13.2853 74.0951 13.0613 74.2978 12.848C74.5004 12.6347 74.7671 12.4267 75.0978 12.224C75.4284 12.0107 75.8338 11.7973 76.3138 11.584L78.6178 10.576ZM85.1251 13.456C85.1251 13.8933 85.1358 14.24 85.1571 14.496C85.1785 14.752 85.2318 14.9493 85.3171 15.088C85.4131 15.216 85.5465 15.3013 85.7171 15.344C85.8878 15.3867 86.1278 15.4187 86.4371 15.44V16H82.1811V15.44C82.4905 15.4293 82.7358 15.4027 82.9171 15.36C83.0985 15.3067 83.2371 15.216 83.3331 15.088C83.4291 14.96 83.4878 14.7787 83.5091 14.544C83.5411 14.2987 83.5571 13.9733 83.5571 13.568V11.696C83.5571 10.9707 83.5465 10.4053 83.5251 10C83.5145 9.59467 83.4611 9.296 83.3651 9.104C83.2798 8.912 83.1411 8.8 82.9491 8.768C82.7571 8.72533 82.4905 8.704 82.1491 8.704V8.144L84.9491 7.536L85.1731 9.52H85.2371C85.3758 9.2 85.5465 8.90667 85.7491 8.64C85.9625 8.37333 86.1918 8.14933 86.4371 7.968C86.6825 7.776 86.9385 7.62667 87.2051 7.52C87.4718 7.41333 87.7438 7.36 88.0211 7.36C88.3625 7.36 88.6291 7.44533 88.8211 7.616C89.0238 7.776 89.1251 7.99467 89.1251 8.272C89.1251 8.528 89.0451 8.73067 88.8851 8.88C88.7251 9.01867 88.4958 9.088 88.1971 9.088C88.0265 9.088 87.8825 9.06667 87.7651 9.024C87.6478 8.98133 87.5411 8.93867 87.4451 8.896C87.3598 8.84267 87.2745 8.79467 87.1891 8.752C87.1145 8.70933 87.0291 8.688 86.9331 8.688C86.6451 8.688 86.3571 8.87467 86.0691 9.248C85.7811 9.61067 85.5571 10.0747 85.3971 10.64C85.3118 10.9493 85.2425 11.3013 85.1891 11.696C85.1465 12.08 85.1251 12.4853 85.1251 12.912V13.456ZM96.4659 14.656H96.4019C96.0179 15.2 95.6072 15.5893 95.1699 15.824C94.7432 16.048 94.2365 16.16 93.6499 16.16C93.0419 16.16 92.4819 16.0533 91.9699 15.84C91.4685 15.616 91.0312 15.312 90.6579 14.928C90.2952 14.5333 90.0072 14.064 89.7939 13.52C89.5912 12.976 89.4899 12.384 89.4899 11.744C89.4899 11.1147 89.5912 10.5333 89.7939 10C90.0072 9.456 90.2952 8.992 90.6579 8.608C91.0312 8.21333 91.4739 7.90933 91.9859 7.696C92.4979 7.472 93.0525 7.36 93.6499 7.36C94.1619 7.36 94.6152 7.44533 95.0099 7.616C95.4152 7.78667 95.8045 8.05867 96.1779 8.432V6.8C96.1779 6.192 96.1672 5.68533 96.1459 5.28C96.1352 4.87467 96.1139 4.59733 96.0819 4.448C96.0285 4.21333 95.8792 4.048 95.6339 3.952C95.3885 3.856 94.9885 3.808 94.4339 3.808V3.328L97.7139 2.72V11.952C97.7139 12.688 97.7192 13.296 97.7299 13.776C97.7405 14.2453 97.7725 14.5813 97.8259 14.784C97.8579 14.912 97.8952 15.0187 97.9379 15.104C97.9912 15.1893 98.0605 15.2587 98.1459 15.312C98.2419 15.3547 98.3645 15.3867 98.5139 15.408C98.6739 15.4293 98.8765 15.44 99.1219 15.44V15.984L96.4659 16.16V14.656ZM96.1459 11.12C96.1459 10.5653 96.1139 10.144 96.0499 9.856C95.9965 9.568 95.8845 9.31733 95.7139 9.104C95.4685 8.784 95.1539 8.544 94.7699 8.384C94.3965 8.21333 94.0232 8.128 93.6499 8.128C92.8819 8.128 92.2952 8.448 91.8899 9.088C91.4952 9.71733 91.2979 10.576 91.2979 11.664C91.2979 12.2293 91.3459 12.7413 91.4419 13.2C91.5485 13.6587 91.6979 14.0533 91.8899 14.384C92.0925 14.704 92.3379 14.9547 92.6259 15.136C92.9245 15.3067 93.2659 15.392 93.6499 15.392C93.8419 15.392 94.0339 15.3707 94.2259 15.328C94.4285 15.2853 94.6205 15.2213 94.8019 15.136C94.9939 15.04 95.1699 14.9333 95.3299 14.816C95.4899 14.688 95.6232 14.544 95.7299 14.384C95.8792 14.1493 95.9859 13.8667 96.0499 13.536C96.1139 13.2053 96.1459 12.752 96.1459 12.176V11.12ZM100.575 16H100.223V13.248H100.623C101.039 14.752 101.796 15.504 102.895 15.504C103.321 15.504 103.657 15.4027 103.903 15.2C104.159 14.9867 104.287 14.6667 104.287 14.24C104.287 14.08 104.26 13.9467 104.207 13.84C104.164 13.7227 104.073 13.6053 103.935 13.488C103.807 13.36 103.62 13.216 103.375 13.056C103.14 12.896 102.825 12.6933 102.431 12.448C102.068 12.224 101.753 12.016 101.487 11.824C101.22 11.632 100.996 11.44 100.815 11.248C100.633 11.0453 100.495 10.832 100.399 10.608C100.313 10.384 100.271 10.1227 100.271 9.824C100.271 9.46133 100.329 9.13067 100.447 8.832C100.575 8.52267 100.745 8.26133 100.959 8.048C101.172 7.83467 101.423 7.66933 101.711 7.552C101.999 7.424 102.313 7.36 102.655 7.36C102.943 7.36 103.241 7.408 103.551 7.504C103.86 7.58933 104.132 7.70667 104.367 7.856L104.687 7.52H104.991V9.824H104.575C104.34 9.17333 104.084 8.70933 103.807 8.432C103.529 8.15467 103.188 8.016 102.783 8.016C102.42 8.016 102.127 8.112 101.903 8.304C101.689 8.496 101.583 8.76267 101.583 9.104C101.583 9.28533 101.609 9.44533 101.663 9.584C101.727 9.712 101.823 9.84 101.951 9.968C102.079 10.096 102.239 10.2293 102.431 10.368C102.633 10.496 102.873 10.6453 103.151 10.816C103.609 11.104 103.999 11.36 104.319 11.584C104.649 11.808 104.916 12.032 105.119 12.256C105.321 12.4693 105.471 12.6933 105.567 12.928C105.663 13.1627 105.711 13.4293 105.711 13.728C105.711 14.4853 105.465 15.0827 104.975 15.52C104.484 15.9467 103.839 16.16 103.039 16.16C102.207 16.16 101.492 15.92 100.895 15.44L100.575 16ZM106.928 18.288C107.504 17.8827 107.915 17.4933 108.16 17.12C108.406 16.7467 108.528 16.3307 108.528 15.872C108.39 15.9573 108.23 16 108.048 16C107.803 16 107.6 15.9147 107.44 15.744C107.291 15.5627 107.216 15.3333 107.216 15.056C107.216 14.7573 107.312 14.5173 107.504 14.336C107.707 14.1547 107.968 14.064 108.288 14.064C109.056 14.064 109.44 14.5973 109.44 15.664C109.44 15.9627 109.403 16.24 109.328 16.496C109.254 16.752 109.131 17.0027 108.96 17.248C108.8 17.4933 108.582 17.7387 108.304 17.984C108.027 18.24 107.691 18.512 107.296 18.8L106.928 18.288ZM4.16 27.232C4.736 27.232 5.216 27.2 5.6 27.136C5.99467 27.0613 6.304 26.9493 6.528 26.8C6.76267 26.6507 6.928 26.4587 7.024 26.224C7.13067 25.9893 7.184 25.712 7.184 25.392H7.744V29.76H7.184C7.184 29.44 7.136 29.1627 7.04 28.928C6.95467 28.6933 6.79467 28.5013 6.56 28.352C6.336 28.192 6.02667 28.0747 5.632 28C5.248 27.9147 4.75733 27.872 4.16 27.872V31.488C4.16 31.84 4.20267 32.1333 4.288 32.368C4.37333 32.592 4.51733 32.7787 4.72 32.928C4.93333 33.0667 5.21067 33.168 5.552 33.232C5.89333 33.2853 6.31467 33.312 6.816 33.312C7.38133 33.312 7.86133 33.2747 8.256 33.2C8.65067 33.1147 8.98133 32.976 9.248 32.784C9.51467 32.592 9.728 32.3413 9.888 32.032C10.048 31.712 10.1813 31.3173 10.288 30.848H10.896L10.656 34H0.72V33.392C1.09333 33.3813 1.392 33.3493 1.616 33.296C1.85067 33.2427 2.032 33.152 2.16 33.024C2.288 32.896 2.37333 32.7147 2.416 32.48C2.45867 32.2453 2.48 31.9413 2.48 31.568V24.112C2.48 23.7387 2.45867 23.44 2.416 23.216C2.384 22.9813 2.30933 22.8 2.192 22.672C2.08533 22.5333 1.92533 22.4427 1.712 22.4C1.49867 22.3467 1.22133 22.3093 0.88 22.288V21.68H10.128L10.272 24.496H9.712C9.648 24.0693 9.54133 23.7227 9.392 23.456C9.25333 23.1787 9.056 22.96 8.8 22.8C8.55467 22.64 8.24 22.528 7.856 22.464C7.472 22.4 7.008 22.368 6.464 22.368H4.432C4.25067 22.368 4.16 22.4587 4.16 22.64V27.232ZM16.8734 29.264C16.2654 29.4987 15.748 29.728 15.3214 29.952C14.9054 30.176 14.5694 30.4 14.3134 30.624C14.0574 30.848 13.8707 31.072 13.7534 31.296C13.6467 31.52 13.5934 31.7493 13.5934 31.984C13.5934 32.336 13.7107 32.624 13.9454 32.848C14.18 33.072 14.4894 33.184 14.8734 33.184C15.1507 33.184 15.4067 33.1147 15.6414 32.976C15.8867 32.8373 16.1 32.6507 16.2814 32.416C16.4627 32.1707 16.6067 31.888 16.7134 31.568C16.82 31.2373 16.8734 30.8907 16.8734 30.528V29.264ZM16.8734 28.576V27.92C16.8734 26.6187 16.3187 25.968 15.2094 25.968C15.028 25.968 14.8734 25.984 14.7454 26.016C14.6174 26.048 14.5107 26.1013 14.4254 26.176C14.34 26.2507 14.26 26.3573 14.1854 26.496C14.1214 26.6347 14.0574 26.8053 13.9934 27.008C13.876 27.3173 13.7587 27.5253 13.6414 27.632C13.5347 27.728 13.3747 27.776 13.1614 27.776C12.628 27.776 12.3614 27.5093 12.3614 26.976C12.3614 26.464 12.6334 26.0693 13.1774 25.792C13.7214 25.504 14.4947 25.36 15.4974 25.36C16.564 25.36 17.3214 25.552 17.7694 25.936C18.2174 26.3093 18.4414 26.9493 18.4414 27.856V31.44C18.4414 32.656 18.6814 33.264 19.1614 33.264C19.3107 33.264 19.4547 33.248 19.5934 33.216C19.732 33.1733 19.8494 33.072 19.9454 32.912L20.1694 33.296C20.0414 33.5413 19.8067 33.7493 19.4654 33.92C19.124 34.08 18.7667 34.16 18.3934 34.16C17.924 34.16 17.572 34.0107 17.3374 33.712C17.1134 33.4133 17.0014 32.992 17.0014 32.448H16.9214C16.644 32.9707 16.26 33.3867 15.7694 33.696C15.2787 33.9947 14.7347 34.144 14.1374 34.144C13.4654 34.144 12.9374 33.9733 12.5534 33.632C12.1694 33.2907 11.9774 32.832 11.9774 32.256C11.9774 32 12.02 31.7547 12.1054 31.52C12.2014 31.2853 12.3507 31.0613 12.5534 30.848C12.756 30.6347 13.0227 30.4267 13.3534 30.224C13.684 30.0107 14.0894 29.7973 14.5694 29.584L16.8734 28.576ZM23.3808 31.456C23.3808 31.8933 23.3914 32.24 23.4128 32.496C23.4341 32.752 23.4874 32.9493 23.5728 33.088C23.6688 33.216 23.8021 33.3013 23.9728 33.344C24.1434 33.3867 24.3834 33.4187 24.6928 33.44V34H20.4368V33.44C20.7461 33.4293 20.9914 33.4027 21.1728 33.36C21.3541 33.3067 21.4928 33.216 21.5888 33.088C21.6848 32.96 21.7434 32.7787 21.7648 32.544C21.7968 32.2987 21.8128 31.9733 21.8128 31.568V29.696C21.8128 28.9707 21.8021 28.4053 21.7808 28C21.7701 27.5947 21.7168 27.296 21.6208 27.104C21.5354 26.912 21.3968 26.8 21.2048 26.768C21.0128 26.7253 20.7461 26.704 20.4048 26.704V26.144L23.2048 25.536L23.4288 27.52H23.4928C23.6314 27.2 23.8021 26.9067 24.0048 26.64C24.2181 26.3733 24.4474 26.1493 24.6928 25.968C24.9381 25.776 25.1941 25.6267 25.4608 25.52C25.7274 25.4133 25.9994 25.36 26.2768 25.36C26.6181 25.36 26.8848 25.4453 27.0768 25.616C27.2794 25.776 27.3808 25.9947 27.3808 26.272C27.3808 26.528 27.3008 26.7307 27.1408 26.88C26.9808 27.0187 26.7514 27.088 26.4528 27.088C26.2821 27.088 26.1381 27.0667 26.0208 27.024C25.9034 26.9813 25.7968 26.9387 25.7008 26.896C25.6154 26.8427 25.5301 26.7947 25.4448 26.752C25.3701 26.7093 25.2848 26.688 25.1888 26.688C24.9008 26.688 24.6128 26.8747 24.3248 27.248C24.0368 27.6107 23.8128 28.0747 23.6528 28.64C23.5674 28.9493 23.4981 29.3013 23.4448 29.696C23.4021 30.08 23.3808 30.4853 23.3808 30.912V31.456ZM27.7738 26.528V25.936C28.3391 25.6053 28.7818 25.2747 29.1018 24.944C29.4218 24.6133 29.6671 24.2187 29.8378 23.76H30.3018V25.776H32.4458V26.528H30.3018V31.392C30.3018 31.7653 30.3178 32.08 30.3498 32.336C30.3924 32.592 30.4564 32.8 30.5418 32.96C30.6271 33.1093 30.7391 33.216 30.8778 33.28C31.0164 33.344 31.1924 33.376 31.4058 33.376C31.6724 33.376 31.8964 33.3227 32.0778 33.216C32.2698 33.0987 32.4564 32.9067 32.6378 32.64L33.0378 32.944C32.8884 33.3387 32.6271 33.6427 32.2538 33.856C31.8911 34.0587 31.4378 34.16 30.8938 34.16C30.1898 34.16 29.6511 33.9947 29.2778 33.664C28.9151 33.3227 28.7338 32.8373 28.7338 32.208V26.528H27.7738ZM36.1886 31.456C36.1886 31.8933 36.1993 32.24 36.2206 32.496C36.242 32.752 36.2953 32.9493 36.3806 33.088C36.4766 33.216 36.61 33.3013 36.7806 33.344C36.9513 33.3867 37.1913 33.4187 37.5006 33.44V34H33.2446V33.44C33.554 33.4187 33.7993 33.3867 33.9806 33.344C34.162 33.3013 34.3006 33.216 34.3966 33.088C34.4926 32.96 34.5513 32.7787 34.5726 32.544C34.6046 32.2987 34.6206 31.9733 34.6206 31.568V24.864C34.6206 24.2347 34.61 23.7333 34.5886 23.36C34.578 22.9867 34.5513 22.704 34.5086 22.512C34.4873 22.384 34.45 22.2827 34.3966 22.208C34.354 22.1227 34.2846 22.0587 34.1886 22.016C34.0926 21.9627 33.9646 21.9253 33.8046 21.904C33.6446 21.8827 33.4473 21.872 33.2126 21.872V21.328L36.1566 20.72V26.816H36.2206C36.3806 26.6027 36.578 26.4107 36.8126 26.24C37.058 26.0587 37.3193 25.904 37.5966 25.776C37.874 25.648 38.162 25.5467 38.4606 25.472C38.77 25.3973 39.0686 25.36 39.3566 25.36C39.8473 25.36 40.2953 25.4453 40.7006 25.616C41.1166 25.7867 41.4366 26.016 41.6606 26.304C41.842 26.5493 41.9753 26.8747 42.0606 27.28C42.146 27.6747 42.1886 28.2133 42.1886 28.896V31.456C42.1886 31.8933 42.1993 32.24 42.2206 32.496C42.242 32.7413 42.2953 32.9333 42.3806 33.072C42.4766 33.2107 42.61 33.3013 42.7806 33.344C42.9513 33.3867 43.1913 33.4187 43.5006 33.44V34H39.2606V33.44C39.5593 33.4293 39.7993 33.4027 39.9806 33.36C40.162 33.3067 40.2953 33.216 40.3806 33.088C40.4766 32.96 40.5353 32.7787 40.5566 32.544C40.5886 32.2987 40.6046 31.9733 40.6046 31.568V29.552C40.6046 28.3573 40.466 27.5093 40.1886 27.008C39.9113 26.496 39.4473 26.24 38.7966 26.24C38.2953 26.24 37.8366 26.368 37.4206 26.624C37.0153 26.88 36.6953 27.232 36.4606 27.68C36.4073 27.7973 36.3593 27.9093 36.3166 28.016C36.2846 28.112 36.258 28.224 36.2366 28.352C36.2153 28.48 36.1993 28.6293 36.1886 28.8C36.1886 28.96 36.1886 29.1627 36.1886 29.408V31.456Z" transform="translate(62 6)" fill="black"/>
<path d="M17.2518 41.7175C17.2518 41.7175 23.1002 43.1153 33 36C28.9624 35.8247 26.7294 34.7143 26.4528 34.0373C28.1707 34.8799 32.1826 34.2321 35.8125 34.0373C37.9238 32.4232 39.5223 31.3227 41.3752 29.4156C52.0078 18.5065 46.6502 0 46.6502 0C44.5058 3.96127 41.5779 7.44143 38.0462 10.2273C36.5567 11.3751 35.9297 11.8828 34.3594 12.9844C33.2693 14.7171 29.0648 18.7834 28.5469 20.7656C28.8868 19.037 29.3521 15.8408 30 14.2031C16.6256 21.6398 3.23684 23.3084 9.82698 38.6981C7.97805 34.6851 7.3125 39 4.07812 30.5625C4.07812 30.5625 3.71735 32.3936 4.07812 34.0373C4.56341 36.2484 9.40964 39.8474 9.40964 39.8474L0 46.8555L0.829834 48L10.1424 40.9383C10.1424 40.9383 15.6946 46.0306 22.6875 46.1719C21.0328 45.0108 15.7969 43.5 14.51 41.0649L17.2518 41.7175ZM27 24L40.657 15.5308L39.7641 16.3344C38.4635 17.3815 37.4122 18.487 36 19.5C32.9282 21.6964 28.1448 26.25 25.5 28.5C18.0412 34.8847 11.7196 38.6153 11.7196 38.6153C11.7196 38.6153 21.5794 28.1834 27 24Z" fill="black"/>
</svg>
