<svg width="170" height="47" viewBox="0 0 170 47" fill="none" xmlns="http://www.w3.org/2000/svg">
<path d="M4.16 13.456C4.16 13.8613 4.18133 14.192 4.224 14.448C4.26667 14.704 4.352 14.9013 4.48 15.04C4.608 15.1787 4.784 15.2747 5.008 15.328C5.232 15.3707 5.53067 15.392 5.904 15.392V16H0.72V15.392C1.09333 15.392 1.392 15.3707 1.616 15.328C1.85067 15.2747 2.032 15.184 2.16 15.056C2.288 14.9173 2.37333 14.7307 2.416 14.496C2.45867 14.2507 2.48 13.9413 2.48 13.568V6.112C2.48 5.70667 2.45333 5.38667 2.4 5.152C2.35733 4.90667 2.272 4.72 2.144 4.592C2.02667 4.464 1.86667 4.384 1.664 4.352C1.46133 4.30933 1.2 4.288 0.88 4.288V3.68H5.744V4.288C5.424 4.288 5.16267 4.30933 4.96 4.352C4.75733 4.39467 4.592 4.48533 4.464 4.624C4.34667 4.76267 4.26667 4.96 4.224 5.216C4.18133 5.46133 4.16 5.79733 4.16 6.224V10.176L8.16 5.36C8.37333 5.09333 8.48 4.88533 8.48 4.736C8.48 4.43733 8.176 4.288 7.568 4.288V3.68H11.424V4.272C11.2107 4.272 11.024 4.288 10.864 4.32C10.704 4.34133 10.544 4.39467 10.384 4.48C10.2347 4.56533 10.0747 4.688 9.904 4.848C9.73333 5.008 9.536 5.216 9.312 5.472L6.304 8.944L10.976 14.56C11.2427 14.8693 11.4933 15.088 11.728 15.216C11.9627 15.3333 12.2773 15.392 12.672 15.392V16H7.76V15.392C8.176 15.392 8.47467 15.36 8.656 15.296C8.83733 15.2213 8.928 15.1093 8.928 14.96C8.928 14.8747 8.88533 14.752 8.8 14.592C8.71467 14.432 8.576 14.2347 8.384 14L5.264 10.16L4.16 11.44V13.456ZM16.1168 13.456C16.1168 13.872 16.1328 14.208 16.1648 14.464C16.2074 14.7093 16.2821 14.9067 16.3888 15.056C16.4954 15.1947 16.6447 15.2907 16.8368 15.344C17.0288 15.3973 17.2848 15.4293 17.6048 15.44V16H13.0128V15.44C13.3328 15.4293 13.5941 15.3973 13.7967 15.344C13.9994 15.28 14.1541 15.184 14.2608 15.056C14.3781 14.9173 14.4528 14.7307 14.4848 14.496C14.5274 14.2507 14.5487 13.9413 14.5487 13.568V11.52C14.5487 10.9013 14.5381 10.3947 14.5168 10C14.5061 9.59467 14.4794 9.31733 14.4368 9.168C14.3834 8.92267 14.2608 8.75733 14.0688 8.672C13.8768 8.576 13.5141 8.528 12.9808 8.528V7.968L16.1168 7.36V13.456ZM14.2767 4.112C14.2767 3.83467 14.3727 3.6 14.5647 3.408C14.7568 3.216 14.9914 3.12 15.2687 3.12C15.5461 3.12 15.7808 3.216 15.9727 3.408C16.1648 3.6 16.2608 3.83467 16.2608 4.112C16.2608 4.38933 16.1648 4.624 15.9727 4.816C15.7808 5.008 15.5461 5.104 15.2687 5.104C14.9914 5.104 14.7568 5.008 14.5647 4.816C14.3727 4.624 14.2767 4.38933 14.2767 4.112ZM21.3779 13.488C21.3779 13.9253 21.3885 14.272 21.4099 14.528C21.4312 14.7733 21.4845 14.9653 21.5699 15.104C21.6659 15.232 21.7992 15.3173 21.9699 15.36C22.1512 15.4027 22.3965 15.4347 22.7059 15.456V16H18.5139V15.456C18.8125 15.4347 19.0472 15.4027 19.2179 15.36C19.3992 15.3173 19.5379 15.232 19.6339 15.104C19.7299 14.976 19.7885 14.7947 19.8099 14.56C19.8419 14.3253 19.8579 14.0053 19.8579 13.6V11.472C19.8579 10.2027 19.8259 9.42933 19.7619 9.152C19.7299 9.01333 19.6872 8.90133 19.6339 8.816C19.5912 8.72 19.5219 8.65067 19.4259 8.608C19.3299 8.55467 19.2072 8.52267 19.0579 8.512C18.9085 8.49067 18.7165 8.48 18.4819 8.48V7.968L21.0419 7.36L21.2339 8.944H21.2979C21.7032 8.44267 22.1779 8.05333 22.7219 7.776C23.2659 7.49867 23.8579 7.36 24.4979 7.36C24.9885 7.36 25.4365 7.44 25.8419 7.6C26.2472 7.76 26.5565 7.97867 26.7699 8.256C26.9512 8.50133 27.0792 8.82133 27.1539 9.216C27.2285 9.6 27.2659 10.1333 27.2659 10.816V13.488C27.2659 13.9253 27.2765 14.272 27.2979 14.528C27.3299 14.7733 27.3885 14.9653 27.4739 15.104C27.5592 15.232 27.6872 15.3173 27.8579 15.36C28.0392 15.4027 28.2739 15.4347 28.5619 15.456V16H24.4179V15.456C24.7165 15.4453 24.9512 15.4187 25.1219 15.376C25.3032 15.3227 25.4365 15.232 25.5219 15.104C25.6179 14.976 25.6765 14.7947 25.6979 14.56C25.7299 14.3147 25.7459 13.9947 25.7459 13.6V11.488C25.7459 10.88 25.7139 10.368 25.6499 9.952C25.5859 9.536 25.4792 9.2 25.3299 8.944C25.1912 8.688 25.0045 8.50667 24.7699 8.4C24.5352 8.28267 24.2525 8.224 23.9219 8.224C23.4419 8.224 22.9992 8.352 22.5939 8.608C22.1992 8.85333 21.8899 9.19467 21.6659 9.632C21.6125 9.73867 21.5645 9.84 21.5219 9.936C21.4899 10.032 21.4632 10.144 21.4419 10.272C21.4205 10.4 21.4045 10.5493 21.3939 10.72C21.3832 10.88 21.3779 11.088 21.3779 11.344V13.488ZM36.6971 14.656H36.6331C36.2491 15.2 35.8385 15.5893 35.4011 15.824C34.9745 16.048 34.4678 16.16 33.8811 16.16C33.2731 16.16 32.7131 16.0533 32.2011 15.84C31.6998 15.616 31.2625 15.312 30.8891 14.928C30.5265 14.5333 30.2385 14.064 30.0251 13.52C29.8225 12.976 29.7211 12.384 29.7211 11.744C29.7211 11.1147 29.8225 10.5333 30.0251 10C30.2385 9.456 30.5265 8.992 30.8891 8.608C31.2625 8.21333 31.7051 7.90933 32.2171 7.696C32.7291 7.472 33.2838 7.36 33.8811 7.36C34.3931 7.36 34.8465 7.44533 35.2411 7.616C35.6465 7.78667 36.0358 8.05867 36.4091 8.432V6.8C36.4091 6.192 36.3985 5.68533 36.3771 5.28C36.3665 4.87467 36.3451 4.59733 36.3131 4.448C36.2598 4.21333 36.1105 4.048 35.8651 3.952C35.6198 3.856 35.2198 3.808 34.6651 3.808V3.328L37.9451 2.72V11.952C37.9451 12.688 37.9505 13.296 37.9611 13.776C37.9718 14.2453 38.0038 14.5813 38.0571 14.784C38.0891 14.912 38.1265 15.0187 38.1691 15.104C38.2225 15.1893 38.2918 15.2587 38.3771 15.312C38.4731 15.3547 38.5958 15.3867 38.7451 15.408C38.9051 15.4293 39.1078 15.44 39.3531 15.44V15.984L36.6971 16.16V14.656ZM36.3771 11.12C36.3771 10.5653 36.3451 10.144 36.2811 9.856C36.2278 9.568 36.1158 9.31733 35.9451 9.104C35.6998 8.784 35.3851 8.544 35.0011 8.384C34.6278 8.21333 34.2545 8.128 33.8811 8.128C33.1131 8.128 32.5265 8.448 32.1211 9.088C31.7265 9.71733 31.5291 10.576 31.5291 11.664C31.5291 12.2293 31.5771 12.7413 31.6731 13.2C31.7798 13.6587 31.9291 14.0533 32.1211 14.384C32.3238 14.704 32.5691 14.9547 32.8571 15.136C33.1558 15.3067 33.4971 15.392 33.8811 15.392C34.0731 15.392 34.2651 15.3707 34.4571 15.328C34.6598 15.2853 34.8518 15.2213 35.0331 15.136C35.2251 15.04 35.4011 14.9333 35.5611 14.816C35.7211 14.688 35.8545 14.544 35.9611 14.384C36.1105 14.1493 36.2171 13.8667 36.2811 13.536C36.3451 13.2053 36.3771 12.752 36.3771 12.176V11.12ZM47.8958 13.456C47.8958 13.8933 47.9064 14.24 47.9278 14.496C47.9491 14.752 48.0024 14.9493 48.0877 15.088C48.1837 15.216 48.3171 15.3013 48.4878 15.344C48.6584 15.3867 48.8984 15.4187 49.2077 15.44V16H44.9517V15.44C45.2611 15.4293 45.5064 15.4027 45.6877 15.36C45.8691 15.3067 46.0078 15.216 46.1037 15.088C46.1998 14.96 46.2584 14.7787 46.2797 14.544C46.3117 14.2987 46.3277 13.9733 46.3277 13.568V11.696C46.3277 10.9707 46.3171 10.4053 46.2958 10C46.2851 9.59467 46.2318 9.296 46.1358 9.104C46.0504 8.912 45.9118 8.8 45.7198 8.768C45.5278 8.72533 45.2611 8.704 44.9197 8.704V8.144L47.7197 7.536L47.9437 9.52H48.0078C48.1464 9.2 48.3171 8.90667 48.5198 8.64C48.7331 8.37333 48.9624 8.14933 49.2077 7.968C49.4531 7.776 49.7091 7.62667 49.9757 7.52C50.2424 7.41333 50.5144 7.36 50.7917 7.36C51.1331 7.36 51.3998 7.44533 51.5918 7.616C51.7944 7.776 51.8958 7.99467 51.8958 8.272C51.8958 8.528 51.8157 8.73067 51.6557 8.88C51.4957 9.01867 51.2664 9.088 50.9678 9.088C50.7971 9.088 50.6531 9.06667 50.5357 9.024C50.4184 8.98133 50.3117 8.93867 50.2158 8.896C50.1304 8.84267 50.0451 8.79467 49.9598 8.752C49.8851 8.70933 49.7998 8.688 49.7038 8.688C49.4158 8.688 49.1277 8.87467 48.8397 9.248C48.5518 9.61067 48.3278 10.0747 48.1677 10.64C48.0824 10.9493 48.0131 11.3013 47.9597 11.696C47.9171 12.08 47.8958 12.4853 47.8958 12.912V13.456ZM60.1489 14.512C59.2422 15.6107 58.1169 16.16 56.7729 16.16C56.1435 16.16 55.5729 16.0587 55.0609 15.856C54.5489 15.6427 54.1062 15.3493 53.7329 14.976C53.3702 14.592 53.0875 14.1387 52.8849 13.616C52.6822 13.0827 52.5809 12.496 52.5809 11.856C52.5809 11.2053 52.6875 10.6027 52.9009 10.048C53.1142 9.49333 53.4129 9.01867 53.7969 8.624C54.1915 8.22933 54.6555 7.92 55.1889 7.696C55.7329 7.472 56.3249 7.36 56.9649 7.36C57.9995 7.36 58.7995 7.64267 59.3649 8.208C59.9302 8.76267 60.2129 9.56267 60.2129 10.608C60.2129 10.7573 60.1809 10.848 60.1169 10.88C60.0635 10.912 59.9302 10.928 59.7169 10.928H54.4529C54.4315 11.0133 54.4155 11.12 54.4049 11.248C54.3942 11.3653 54.3889 11.4987 54.3889 11.648C54.3889 12.2027 54.4529 12.7093 54.5809 13.168C54.7195 13.616 54.9115 14 55.1569 14.32C55.4129 14.64 55.7115 14.8907 56.0529 15.072C56.4049 15.2427 56.7942 15.328 57.2209 15.328C57.6689 15.328 58.0849 15.232 58.4689 15.04C58.8529 14.8373 59.2475 14.512 59.6529 14.064L60.1489 14.512ZM57.5089 10.192C57.7222 10.192 57.8929 10.1867 58.0209 10.176C58.1489 10.1653 58.2449 10.144 58.3089 10.112C58.3729 10.08 58.4155 10.0373 58.4369 9.984C58.4582 9.92 58.4689 9.84 58.4689 9.744C58.4689 9.25333 58.3089 8.864 57.9889 8.576C57.6795 8.27733 57.2529 8.128 56.7089 8.128C55.5569 8.128 54.8422 8.816 54.5649 10.192H57.5089ZM65.3527 12.56C65.8008 12.56 66.1474 12.3573 66.3927 11.952C66.6487 11.5467 66.7768 10.976 66.7768 10.24C66.7768 9.51467 66.6487 8.95467 66.3927 8.56C66.1474 8.15467 65.7954 7.952 65.3368 7.952C64.8781 7.952 64.5101 8.15467 64.2327 8.56C63.9661 8.96533 63.8328 9.52 63.8328 10.224C63.8328 10.928 63.9714 11.4933 64.2487 11.92C64.5261 12.3467 64.8941 12.56 65.3527 12.56ZM64.4727 14.432C64.7287 14.4533 64.9634 14.4747 65.1768 14.496C65.3901 14.5173 65.5981 14.5387 65.8007 14.56C66.0141 14.5813 66.2221 14.608 66.4247 14.64C66.6381 14.672 66.8674 14.704 67.1128 14.736C67.8808 14.8533 68.4941 15.152 68.9528 15.632C69.4221 16.1013 69.6567 16.6933 69.6567 17.408C69.6567 18.304 69.2994 18.9867 68.5848 19.456C67.8808 19.9253 66.8568 20.16 65.5128 20.16C64.9154 20.16 64.3661 20.1067 63.8647 20C63.3741 19.8933 62.9528 19.7387 62.6007 19.536C62.2487 19.344 61.9714 19.1093 61.7688 18.832C61.5768 18.5547 61.4808 18.2507 61.4808 17.92C61.4808 17.696 61.5181 17.488 61.5928 17.296C61.6674 17.104 61.7687 16.9333 61.8967 16.784C62.0247 16.6453 62.1741 16.5333 62.3448 16.448C62.5261 16.3627 62.7127 16.32 62.9047 16.32C63.2674 16.32 63.5927 16.432 63.8807 16.656C63.5927 16.72 63.3581 16.8747 63.1767 17.12C62.9954 17.376 62.9047 17.664 62.9047 17.984C62.9047 18.4533 63.1341 18.816 63.5928 19.072C64.0621 19.328 64.7234 19.456 65.5767 19.456C67.4007 19.456 68.3127 18.896 68.3127 17.776C68.3127 17.3493 68.1687 16.992 67.8808 16.704C67.5928 16.4267 67.2514 16.2613 66.8568 16.208C66.6008 16.176 66.3341 16.1387 66.0567 16.096C65.7901 16.064 65.5234 16.032 65.2568 16C65.0008 15.968 64.7608 15.9413 64.5368 15.92C64.3128 15.8987 64.1314 15.8773 63.9927 15.856C63.3954 15.792 62.9421 15.632 62.6328 15.376C62.3234 15.12 62.1688 14.768 62.1688 14.32C62.1688 13.9467 62.3234 13.616 62.6328 13.328C62.9421 13.04 63.3314 12.8587 63.8008 12.784V12.72C63.5661 12.624 63.3474 12.4907 63.1448 12.32C62.9421 12.1387 62.7661 11.936 62.6168 11.712C62.4781 11.488 62.3661 11.248 62.2808 10.992C62.1954 10.7253 62.1528 10.4533 62.1528 10.176C62.1528 9.77067 62.2274 9.39733 62.3767 9.056C62.5367 8.71467 62.7554 8.42133 63.0327 8.176C63.3207 7.92 63.6568 7.72267 64.0408 7.584C64.4248 7.43467 64.8461 7.36 65.3047 7.36C65.7741 7.36 66.2167 7.43467 66.6328 7.584C67.0488 7.72267 67.4061 7.93067 67.7048 8.208C68.0674 7.90933 68.3874 7.696 68.6648 7.568C68.9421 7.42933 69.2034 7.36 69.4487 7.36C69.8327 7.36 70.1367 7.45067 70.3608 7.632C70.5954 7.80267 70.7128 8.03733 70.7128 8.336C70.7128 8.51733 70.6488 8.66133 70.5208 8.768C70.4034 8.87467 70.2541 8.928 70.0728 8.928C69.9234 8.928 69.8008 8.90133 69.7048 8.848C69.6088 8.79467 69.5181 8.74133 69.4327 8.688C69.3581 8.624 69.2781 8.56533 69.1927 8.512C69.1074 8.45867 69.0007 8.432 68.8727 8.432C68.6167 8.432 68.3554 8.52267 68.0887 8.704C68.3448 9.09867 68.4728 9.59467 68.4728 10.192C68.4728 11.0987 68.1901 11.8133 67.6248 12.336C67.0594 12.848 66.2114 13.1467 65.0807 13.232C64.4301 13.2853 63.9767 13.3547 63.7208 13.44C63.4648 13.5253 63.3368 13.68 63.3368 13.904C63.3368 14.0747 63.4327 14.2027 63.6247 14.288C63.8167 14.3627 64.0994 14.4107 64.4727 14.432ZM76.1309 11.264C75.5229 11.4987 75.0055 11.728 74.5789 11.952C74.1629 12.176 73.8269 12.4 73.5709 12.624C73.3149 12.848 73.1282 13.072 73.0109 13.296C72.9042 13.52 72.8509 13.7493 72.8509 13.984C72.8509 14.336 72.9682 14.624 73.2029 14.848C73.4375 15.072 73.7469 15.184 74.1309 15.184C74.4082 15.184 74.6642 15.1147 74.8989 14.976C75.1442 14.8373 75.3575 14.6507 75.5389 14.416C75.7202 14.1707 75.8642 13.888 75.9709 13.568C76.0775 13.2373 76.1309 12.8907 76.1309 12.528V11.264ZM76.1309 10.576V9.92C76.1309 8.61867 75.5762 7.968 74.4669 7.968C74.2855 7.968 74.1309 7.984 74.0029 8.016C73.8749 8.048 73.7682 8.10133 73.6829 8.176C73.5975 8.25067 73.5175 8.35733 73.4429 8.496C73.3789 8.63467 73.3149 8.80533 73.2509 9.008C73.1335 9.31733 73.0162 9.52533 72.8989 9.632C72.7922 9.728 72.6322 9.776 72.4189 9.776C71.8855 9.776 71.6189 9.50933 71.6189 8.976C71.6189 8.464 71.8909 8.06933 72.4349 7.792C72.9789 7.504 73.7522 7.36 74.7549 7.36C75.8215 7.36 76.5789 7.552 77.0269 7.936C77.4749 8.30933 77.6989 8.94933 77.6989 9.856V13.44C77.6989 14.656 77.9389 15.264 78.4189 15.264C78.5682 15.264 78.7122 15.248 78.8509 15.216C78.9895 15.1733 79.1069 15.072 79.2029 14.912L79.4269 15.296C79.2989 15.5413 79.0642 15.7493 78.7229 15.92C78.3815 16.08 78.0242 16.16 77.6509 16.16C77.1815 16.16 76.8295 16.0107 76.5949 15.712C76.3709 15.4133 76.2589 14.992 76.2589 14.448H76.1789C75.9015 14.9707 75.5175 15.3867 75.0269 15.696C74.5362 15.9947 73.9922 16.144 73.3949 16.144C72.7229 16.144 72.1949 15.9733 71.8109 15.632C71.4269 15.2907 71.2349 14.832 71.2349 14.256C71.2349 14 71.2775 13.7547 71.3629 13.52C71.4589 13.2853 71.6082 13.0613 71.8109 12.848C72.0135 12.6347 72.2802 12.4267 72.6109 12.224C72.9415 12.0107 73.3469 11.7973 73.8269 11.584L76.1309 10.576ZM82.9583 13.456C82.9583 13.8933 82.9689 14.24 82.9903 14.496C83.0116 14.752 83.0649 14.9493 83.1502 15.088C83.2462 15.216 83.3796 15.3013 83.5503 15.344C83.7209 15.3867 83.9609 15.4187 84.2702 15.44V16H80.0142V15.44C80.3236 15.4293 80.5689 15.4027 80.7502 15.36C80.9316 15.3067 81.0703 15.216 81.1662 15.088C81.2623 14.96 81.3209 14.7787 81.3422 14.544C81.3742 14.2987 81.3902 13.9733 81.3902 13.568V11.696C81.3902 10.9707 81.3796 10.4053 81.3583 10C81.3476 9.59467 81.2943 9.296 81.1983 9.104C81.1129 8.912 80.9743 8.8 80.7823 8.768C80.5903 8.72533 80.3236 8.704 79.9822 8.704V8.144L82.7822 7.536L83.0062 9.52H83.0703C83.2089 9.2 83.3796 8.90667 83.5823 8.64C83.7956 8.37333 84.0249 8.14933 84.2702 7.968C84.5156 7.776 84.7716 7.62667 85.0382 7.52C85.3049 7.41333 85.5769 7.36 85.8542 7.36C86.1956 7.36 86.4623 7.44533 86.6543 7.616C86.8569 7.776 86.9583 7.99467 86.9583 8.272C86.9583 8.528 86.8782 8.73067 86.7182 8.88C86.5582 9.01867 86.3289 9.088 86.0303 9.088C85.8596 9.088 85.7156 9.06667 85.5982 9.024C85.4809 8.98133 85.3742 8.93867 85.2783 8.896C85.1929 8.84267 85.1076 8.79467 85.0223 8.752C84.9476 8.70933 84.8623 8.688 84.7663 8.688C84.4783 8.688 84.1902 8.87467 83.9022 9.248C83.6143 9.61067 83.3903 10.0747 83.2302 10.64C83.1449 10.9493 83.0756 11.3013 83.0222 11.696C82.9796 12.08 82.9583 12.4853 82.9583 12.912V13.456ZM94.619 14.656H94.555C94.171 15.2 93.7603 15.5893 93.323 15.824C92.8963 16.048 92.3897 16.16 91.803 16.16C91.195 16.16 90.635 16.0533 90.123 15.84C89.6217 15.616 89.1843 15.312 88.811 14.928C88.4483 14.5333 88.1603 14.064 87.947 13.52C87.7443 12.976 87.643 12.384 87.643 11.744C87.643 11.1147 87.7443 10.5333 87.947 10C88.1603 9.456 88.4483 8.992 88.811 8.608C89.1843 8.21333 89.627 7.90933 90.139 7.696C90.651 7.472 91.2057 7.36 91.803 7.36C92.315 7.36 92.7683 7.44533 93.163 7.616C93.5683 7.78667 93.9577 8.05867 94.331 8.432V6.8C94.331 6.192 94.3203 5.68533 94.299 5.28C94.2883 4.87467 94.267 4.59733 94.235 4.448C94.1817 4.21333 94.0323 4.048 93.787 3.952C93.5417 3.856 93.1417 3.808 92.587 3.808V3.328L95.867 2.72V11.952C95.867 12.688 95.8723 13.296 95.883 13.776C95.8937 14.2453 95.9257 14.5813 95.979 14.784C96.011 14.912 96.0483 15.0187 96.091 15.104C96.1443 15.1893 96.2137 15.2587 96.299 15.312C96.395 15.3547 96.5177 15.3867 96.667 15.408C96.827 15.4293 97.0297 15.44 97.275 15.44V15.984L94.619 16.16V14.656ZM94.299 11.12C94.299 10.5653 94.267 10.144 94.203 9.856C94.1497 9.568 94.0377 9.31733 93.867 9.104C93.6217 8.784 93.307 8.544 92.923 8.384C92.5497 8.21333 92.1763 8.128 91.803 8.128C91.035 8.128 90.4483 8.448 90.043 9.088C89.6483 9.71733 89.451 10.576 89.451 11.664C89.451 12.2293 89.499 12.7413 89.595 13.2C89.7017 13.6587 89.851 14.0533 90.043 14.384C90.2457 14.704 90.491 14.9547 90.779 15.136C91.0777 15.3067 91.419 15.392 91.803 15.392C91.995 15.392 92.187 15.3707 92.379 15.328C92.5817 15.2853 92.7737 15.2213 92.955 15.136C93.147 15.04 93.323 14.9333 93.483 14.816C93.643 14.688 93.7763 14.544 93.883 14.384C94.0323 14.1493 94.139 13.8667 94.203 13.536C94.267 13.2053 94.299 12.752 94.299 12.176V11.12ZM99.0479 16H98.6959V13.248H99.0959C99.5119 14.752 100.269 15.504 101.368 15.504C101.795 15.504 102.131 15.4027 102.376 15.2C102.632 14.9867 102.76 14.6667 102.76 14.24C102.76 14.08 102.733 13.9467 102.68 13.84C102.637 13.7227 102.547 13.6053 102.408 13.488C102.28 13.36 102.093 13.216 101.848 13.056C101.613 12.896 101.299 12.6933 100.904 12.448C100.541 12.224 100.227 12.016 99.9599 11.824C99.6932 11.632 99.4692 11.44 99.2879 11.248C99.1065 11.0453 98.9679 10.832 98.8719 10.608C98.7865 10.384 98.7439 10.1227 98.7439 9.824C98.7439 9.46133 98.8025 9.13067 98.9199 8.832C99.0479 8.52267 99.2185 8.26133 99.4319 8.048C99.6452 7.83467 99.8959 7.66933 100.184 7.552C100.472 7.424 100.787 7.36 101.128 7.36C101.416 7.36 101.715 7.408 102.024 7.504C102.333 7.58933 102.605 7.70667 102.84 7.856L103.16 7.52H103.464V9.824H103.048C102.813 9.17333 102.557 8.70933 102.28 8.432C102.003 8.15467 101.661 8.016 101.256 8.016C100.893 8.016 100.6 8.112 100.376 8.304C100.163 8.496 100.056 8.76267 100.056 9.104C100.056 9.28533 100.083 9.44533 100.136 9.584C100.2 9.712 100.296 9.84 100.424 9.968C100.552 10.096 100.712 10.2293 100.904 10.368C101.107 10.496 101.347 10.6453 101.624 10.816C102.083 11.104 102.472 11.36 102.792 11.584C103.123 11.808 103.389 12.032 103.592 12.256C103.795 12.4693 103.944 12.6933 104.04 12.928C104.136 13.1627 104.184 13.4293 104.184 13.728C104.184 14.4853 103.939 15.0827 103.448 15.52C102.957 15.9467 102.312 16.16 101.512 16.16C100.68 16.16 99.9652 15.92 99.3679 15.44L99.0479 16ZM105.721 18.288C106.297 17.8827 106.708 17.4933 106.954 17.12C107.199 16.7467 107.322 16.3307 107.322 15.872C107.183 15.9573 107.023 16 106.842 16C106.596 16 106.394 15.9147 106.234 15.744C106.084 15.5627 106.01 15.3333 106.01 15.056C106.01 14.7573 106.106 14.5173 106.298 14.336C106.5 14.1547 106.762 14.064 107.082 14.064C107.85 14.064 108.234 14.5973 108.234 15.664C108.234 15.9627 108.196 16.24 108.122 16.496C108.047 16.752 107.924 17.0027 107.753 17.248C107.593 17.4933 107.375 17.7387 107.098 17.984C106.82 18.24 106.484 18.512 106.089 18.8L105.721 18.288ZM4.16 27.232C4.736 27.232 5.216 27.2 5.6 27.136C5.99467 27.0613 6.304 26.9493 6.528 26.8C6.76267 26.6507 6.928 26.4587 7.024 26.224C7.13067 25.9893 7.184 25.712 7.184 25.392H7.744V29.76H7.184C7.184 29.44 7.136 29.1627 7.04 28.928C6.95467 28.6933 6.79467 28.5013 6.56 28.352C6.336 28.192 6.02667 28.0747 5.632 28C5.248 27.9147 4.75733 27.872 4.16 27.872V31.488C4.16 31.84 4.20267 32.1333 4.288 32.368C4.37333 32.592 4.51733 32.7787 4.72 32.928C4.93333 33.0667 5.21067 33.168 5.552 33.232C5.89333 33.2853 6.31467 33.312 6.816 33.312C7.38133 33.312 7.86133 33.2747 8.256 33.2C8.65067 33.1147 8.98133 32.976 9.248 32.784C9.51467 32.592 9.728 32.3413 9.888 32.032C10.048 31.712 10.1813 31.3173 10.288 30.848H10.896L10.656 34H0.72V33.392C1.09333 33.3813 1.392 33.3493 1.616 33.296C1.85067 33.2427 2.032 33.152 2.16 33.024C2.288 32.896 2.37333 32.7147 2.416 32.48C2.45867 32.2453 2.48 31.9413 2.48 31.568V24.112C2.48 23.7387 2.45867 23.44 2.416 23.216C2.384 22.9813 2.30933 22.8 2.192 22.672C2.08533 22.5333 1.92533 22.4427 1.712 22.4C1.49867 22.3467 1.22133 22.3093 0.88 22.288V21.68H10.128L10.272 24.496H9.712C9.648 24.0693 9.54133 23.7227 9.392 23.456C9.25333 23.1787 9.056 22.96 8.8 22.8C8.55467 22.64 8.24 22.528 7.856 22.464C7.472 22.4 7.008 22.368 6.464 22.368H4.432C4.25067 22.368 4.16 22.4587 4.16 22.64V27.232ZM17.1934 29.264C16.5854 29.4987 16.068 29.728 15.6414 29.952C15.2254 30.176 14.8894 30.4 14.6334 30.624C14.3774 30.848 14.1907 31.072 14.0734 31.296C13.9667 31.52 13.9134 31.7493 13.9134 31.984C13.9134 32.336 14.0307 32.624 14.2654 32.848C14.5 33.072 14.8094 33.184 15.1934 33.184C15.4707 33.184 15.7267 33.1147 15.9614 32.976C16.2067 32.8373 16.42 32.6507 16.6014 32.416C16.7827 32.1707 16.9267 31.888 17.0334 31.568C17.14 31.2373 17.1934 30.8907 17.1934 30.528V29.264ZM17.1934 28.576V27.92C17.1934 26.6187 16.6387 25.968 15.5294 25.968C15.348 25.968 15.1934 25.984 15.0654 26.016C14.9374 26.048 14.8307 26.1013 14.7454 26.176C14.66 26.2507 14.58 26.3573 14.5054 26.496C14.4414 26.6347 14.3774 26.8053 14.3134 27.008C14.196 27.3173 14.0787 27.5253 13.9614 27.632C13.8547 27.728 13.6947 27.776 13.4814 27.776C12.948 27.776 12.6814 27.5093 12.6814 26.976C12.6814 26.464 12.9534 26.0693 13.4974 25.792C14.0414 25.504 14.8147 25.36 15.8174 25.36C16.884 25.36 17.6414 25.552 18.0894 25.936C18.5374 26.3093 18.7614 26.9493 18.7614 27.856V31.44C18.7614 32.656 19.0014 33.264 19.4814 33.264C19.6307 33.264 19.7747 33.248 19.9134 33.216C20.052 33.1733 20.1694 33.072 20.2654 32.912L20.4894 33.296C20.3614 33.5413 20.1267 33.7493 19.7854 33.92C19.444 34.08 19.0867 34.16 18.7134 34.16C18.244 34.16 17.892 34.0107 17.6574 33.712C17.4334 33.4133 17.3214 32.992 17.3214 32.448H17.2414C16.964 32.9707 16.58 33.3867 16.0894 33.696C15.5987 33.9947 15.0547 34.144 14.4574 34.144C13.7854 34.144 13.2574 33.9733 12.8734 33.632C12.4894 33.2907 12.2974 32.832 12.2974 32.256C12.2974 32 12.34 31.7547 12.4254 31.52C12.5214 31.2853 12.6707 31.0613 12.8734 30.848C13.076 30.6347 13.3427 30.4267 13.6734 30.224C14.004 30.0107 14.4094 29.7973 14.8894 29.584L17.1934 28.576ZM24.0208 31.456C24.0208 31.8933 24.0314 32.24 24.0528 32.496C24.0741 32.752 24.1274 32.9493 24.2127 33.088C24.3087 33.216 24.4421 33.3013 24.6128 33.344C24.7834 33.3867 25.0234 33.4187 25.3327 33.44V34H21.0767V33.44C21.3861 33.4293 21.6314 33.4027 21.8127 33.36C21.9941 33.3067 22.1328 33.216 22.2287 33.088C22.3248 32.96 22.3834 32.7787 22.4047 32.544C22.4367 32.2987 22.4527 31.9733 22.4527 31.568V29.696C22.4527 28.9707 22.4421 28.4053 22.4208 28C22.4101 27.5947 22.3568 27.296 22.2608 27.104C22.1754 26.912 22.0368 26.8 21.8448 26.768C21.6528 26.7253 21.3861 26.704 21.0447 26.704V26.144L23.8447 25.536L24.0687 27.52H24.1328C24.2714 27.2 24.4421 26.9067 24.6448 26.64C24.8581 26.3733 25.0874 26.1493 25.3327 25.968C25.5781 25.776 25.8341 25.6267 26.1007 25.52C26.3674 25.4133 26.6394 25.36 26.9167 25.36C27.2581 25.36 27.5248 25.4453 27.7168 25.616C27.9194 25.776 28.0208 25.9947 28.0208 26.272C28.0208 26.528 27.9407 26.7307 27.7807 26.88C27.6207 27.0187 27.3914 27.088 27.0928 27.088C26.9221 27.088 26.7781 27.0667 26.6607 27.024C26.5434 26.9813 26.4367 26.9387 26.3408 26.896C26.2554 26.8427 26.1701 26.7947 26.0848 26.752C26.0101 26.7093 25.9248 26.688 25.8288 26.688C25.5408 26.688 25.2527 26.8747 24.9647 27.248C24.6768 27.6107 24.4528 28.0747 24.2927 28.64C24.2074 28.9493 24.1381 29.3013 24.0847 29.696C24.0421 30.08 24.0208 30.4853 24.0208 30.912V31.456ZM28.7337 26.528V25.936C29.2991 25.6053 29.7418 25.2747 30.0618 24.944C30.3817 24.6133 30.6271 24.2187 30.7977 23.76H31.2617V25.776H33.4057V26.528H31.2617V31.392C31.2617 31.7653 31.2778 32.08 31.3098 32.336C31.3524 32.592 31.4164 32.8 31.5017 32.96C31.5871 33.1093 31.6991 33.216 31.8377 33.28C31.9764 33.344 32.1524 33.376 32.3657 33.376C32.6324 33.376 32.8564 33.3227 33.0377 33.216C33.2297 33.0987 33.4164 32.9067 33.5978 32.64L33.9977 32.944C33.8484 33.3387 33.5871 33.6427 33.2137 33.856C32.8511 34.0587 32.3978 34.16 31.8537 34.16C31.1497 34.16 30.6111 33.9947 30.2378 33.664C29.8751 33.3227 29.6938 32.8373 29.6938 32.208V26.528H28.7337ZM37.4686 31.456C37.4686 31.8933 37.4793 32.24 37.5006 32.496C37.522 32.752 37.5753 32.9493 37.6606 33.088C37.7566 33.216 37.89 33.3013 38.0606 33.344C38.2313 33.3867 38.4713 33.4187 38.7806 33.44V34H34.5246V33.44C34.834 33.4187 35.0793 33.3867 35.2606 33.344C35.442 33.3013 35.5806 33.216 35.6766 33.088C35.7726 32.96 35.8313 32.7787 35.8526 32.544C35.8846 32.2987 35.9006 31.9733 35.9006 31.568V24.864C35.9006 24.2347 35.89 23.7333 35.8686 23.36C35.858 22.9867 35.8313 22.704 35.7886 22.512C35.7673 22.384 35.73 22.2827 35.6766 22.208C35.634 22.1227 35.5646 22.0587 35.4686 22.016C35.3726 21.9627 35.2446 21.9253 35.0846 21.904C34.9246 21.8827 34.7273 21.872 34.4926 21.872V21.328L37.4366 20.72V26.816H37.5006C37.6606 26.6027 37.858 26.4107 38.0926 26.24C38.338 26.0587 38.5993 25.904 38.8766 25.776C39.154 25.648 39.442 25.5467 39.7406 25.472C40.05 25.3973 40.3486 25.36 40.6366 25.36C41.1273 25.36 41.5753 25.4453 41.9806 25.616C42.3966 25.7867 42.7166 26.016 42.9406 26.304C43.122 26.5493 43.2553 26.8747 43.3406 27.28C43.426 27.6747 43.4686 28.2133 43.4686 28.896V31.456C43.4686 31.8933 43.4793 32.24 43.5006 32.496C43.522 32.7413 43.5753 32.9333 43.6606 33.072C43.7566 33.2107 43.89 33.3013 44.0606 33.344C44.2313 33.3867 44.4713 33.4187 44.7806 33.44V34H40.5406V33.44C40.8393 33.4293 41.0793 33.4027 41.2606 33.36C41.442 33.3067 41.5753 33.216 41.6606 33.088C41.7566 32.96 41.8153 32.7787 41.8366 32.544C41.8686 32.2987 41.8846 31.9733 41.8846 31.568V29.552C41.8846 28.3573 41.746 27.5093 41.4686 27.008C41.1913 26.496 40.7273 26.24 40.0766 26.24C39.5753 26.24 39.1166 26.368 38.7006 26.624C38.2953 26.88 37.9753 27.232 37.7406 27.68C37.6873 27.7973 37.6393 27.9093 37.5966 28.016C37.5646 28.112 37.538 28.224 37.5166 28.352C37.4953 28.48 37.4793 28.6293 37.4686 28.8C37.4686 28.96 37.4686 29.1627 37.4686 29.408V31.456Z" transform="translate(61.5001 7)" fill="white"/>
<path d="M18 40.5C18 40.5 23.7123 41.9396 33.5 35C29.5082 34.829 26.4267 33.8573 26.1532 33.197C27.8517 34.0188 31.9803 33.6522 35.5 33.5C37.5874 31.9257 39.0747 30.5494 40.9067 28.6894C51.4189 18.0496 46.122 0 46.122 0C44.0018 3.86348 41.1071 7.25772 37.6154 9.97479C36.1428 11.0942 36.1106 11.5856 34.5 12.5C33.4223 14.19 32.4135 16.5039 31.5 18.5C31.8361 16.814 30.8594 15.0972 31.5 13.5C18.2771 20.7531 3.20018 22.733 9.7157 37.7427C7 34.5 6.42017 33.242 5 31C5 31 5.21213 33.094 5.5 34.5C5.97979 36.6565 9.30308 38.8637 9.30308 38.8637L0 45.6988L0.820437 46.815L10.0276 39.9276C10.0276 39.9276 12.5863 43.3623 19.5 43.5C17.864 42.3676 16.1719 40.849 14.3457 40.0511L18 40.5ZM27.5 23L40.1966 15.1474L39.3138 15.9312C38.028 16.9524 37.1883 17.5414 35.7922 18.5294C32.7551 20.6716 30.1148 23.3055 27.5 25.5C20.1257 31.7271 11.5869 37.6619 11.5869 37.6619C11.5869 37.6619 22.1408 27.0802 27.5 23Z" fill="white"/>
</svg>
