<svg width="171" height="47" viewBox="0 0 171 47" fill="none" xmlns="http://www.w3.org/2000/svg">
<path d="M4.16 13.456C4.16 13.8613 4.18133 14.192 4.224 14.448C4.26667 14.704 4.352 14.9013 4.48 15.04C4.608 15.1787 4.784 15.2747 5.008 15.328C5.232 15.3707 5.53067 15.392 5.904 15.392V16H0.72V15.392C1.09333 15.392 1.392 15.3707 1.616 15.328C1.85067 15.2747 2.032 15.184 2.16 15.056C2.288 14.9173 2.37333 14.7307 2.416 14.496C2.45867 14.2507 2.48 13.9413 2.48 13.568V6.112C2.48 5.70667 2.45333 5.38667 2.4 5.152C2.35733 4.90667 2.272 4.72 2.144 4.592C2.02667 4.464 1.86667 4.384 1.664 4.352C1.46133 4.30933 1.2 4.288 0.88 4.288V3.68H5.744V4.288C5.424 4.288 5.16267 4.30933 4.96 4.352C4.75733 4.39467 4.592 4.48533 4.464 4.624C4.34667 4.76267 4.26667 4.96 4.224 5.216C4.18133 5.46133 4.16 5.79733 4.16 6.224V10.176L8.16 5.36C8.37333 5.09333 8.48 4.88533 8.48 4.736C8.48 4.43733 8.176 4.288 7.568 4.288V3.68H11.424V4.272C11.2107 4.272 11.024 4.288 10.864 4.32C10.704 4.34133 10.544 4.39467 10.384 4.48C10.2347 4.56533 10.0747 4.688 9.904 4.848C9.73333 5.008 9.536 5.216 9.312 5.472L6.304 8.944L10.976 14.56C11.2427 14.8693 11.4933 15.088 11.728 15.216C11.9627 15.3333 12.2773 15.392 12.672 15.392V16H7.76V15.392C8.176 15.392 8.47467 15.36 8.656 15.296C8.83733 15.2213 8.928 15.1093 8.928 14.96C8.928 14.8747 8.88533 14.752 8.8 14.592C8.71467 14.432 8.576 14.2347 8.384 14L5.264 10.16L4.16 11.44V13.456ZM15.7968 13.456C15.7968 13.872 15.8128 14.208 15.8448 14.464C15.8874 14.7093 15.9621 14.9067 16.0688 15.056C16.1754 15.1947 16.3248 15.2907 16.5168 15.344C16.7088 15.3973 16.9648 15.4293 17.2848 15.44V16H12.6928V15.44C13.0128 15.4293 13.2741 15.3973 13.4768 15.344C13.6794 15.28 13.8341 15.184 13.9408 15.056C14.0581 14.9173 14.1328 14.7307 14.1648 14.496C14.2074 14.2507 14.2288 13.9413 14.2288 13.568V11.52C14.2288 10.9013 14.2181 10.3947 14.1968 10C14.1861 9.59467 14.1594 9.31733 14.1168 9.168C14.0634 8.92267 13.9408 8.75733 13.7488 8.672C13.5568 8.576 13.1941 8.528 12.6608 8.528V7.968L15.7968 7.36V13.456ZM13.9568 4.112C13.9568 3.83467 14.0528 3.6 14.2448 3.408C14.4368 3.216 14.6714 3.12 14.9488 3.12C15.2261 3.12 15.4608 3.216 15.6528 3.408C15.8448 3.6 15.9408 3.83467 15.9408 4.112C15.9408 4.38933 15.8448 4.624 15.6528 4.816C15.4608 5.008 15.2261 5.104 14.9488 5.104C14.6714 5.104 14.4368 5.008 14.2448 4.816C14.0528 4.624 13.9568 4.38933 13.9568 4.112ZM20.7379 13.488C20.7379 13.9253 20.7485 14.272 20.7699 14.528C20.7912 14.7733 20.8445 14.9653 20.9299 15.104C21.0259 15.232 21.1592 15.3173 21.3299 15.36C21.5112 15.4027 21.7565 15.4347 22.0659 15.456V16H17.8739V15.456C18.1725 15.4347 18.4072 15.4027 18.5779 15.36C18.7592 15.3173 18.8979 15.232 18.9939 15.104C19.0899 14.976 19.1485 14.7947 19.1699 14.56C19.2019 14.3253 19.2179 14.0053 19.2179 13.6V11.472C19.2179 10.2027 19.1859 9.42933 19.1219 9.152C19.0899 9.01333 19.0472 8.90133 18.9939 8.816C18.9512 8.72 18.8819 8.65067 18.7859 8.608C18.6899 8.55467 18.5672 8.52267 18.4179 8.512C18.2685 8.49067 18.0765 8.48 17.8419 8.48V7.968L20.4019 7.36L20.5939 8.944H20.6579C21.0632 8.44267 21.5379 8.05333 22.0819 7.776C22.6259 7.49867 23.2179 7.36 23.8579 7.36C24.3485 7.36 24.7965 7.44 25.2019 7.6C25.6072 7.76 25.9165 7.97867 26.1299 8.256C26.3112 8.50133 26.4392 8.82133 26.5139 9.216C26.5885 9.6 26.6259 10.1333 26.6259 10.816V13.488C26.6259 13.9253 26.6365 14.272 26.6579 14.528C26.6899 14.7733 26.7485 14.9653 26.8339 15.104C26.9192 15.232 27.0472 15.3173 27.2179 15.36C27.3992 15.4027 27.6339 15.4347 27.9219 15.456V16H23.7779V15.456C24.0765 15.4453 24.3112 15.4187 24.4819 15.376C24.6632 15.3227 24.7965 15.232 24.8819 15.104C24.9779 14.976 25.0365 14.7947 25.0579 14.56C25.0899 14.3147 25.1059 13.9947 25.1059 13.6V11.488C25.1059 10.88 25.0739 10.368 25.0099 9.952C24.9459 9.536 24.8392 9.2 24.6899 8.944C24.5512 8.688 24.3645 8.50667 24.1299 8.4C23.8952 8.28267 23.6125 8.224 23.2819 8.224C22.8019 8.224 22.3592 8.352 21.9539 8.608C21.5592 8.85333 21.2499 9.19467 21.0259 9.632C20.9725 9.73867 20.9245 9.84 20.8819 9.936C20.8499 10.032 20.8232 10.144 20.8019 10.272C20.7805 10.4 20.7645 10.5493 20.7539 10.72C20.7432 10.88 20.7379 11.088 20.7379 11.344V13.488ZM35.7371 14.656H35.6731C35.2891 15.2 34.8785 15.5893 34.4411 15.824C34.0145 16.048 33.5078 16.16 32.9211 16.16C32.3131 16.16 31.7531 16.0533 31.2411 15.84C30.7398 15.616 30.3025 15.312 29.9291 14.928C29.5665 14.5333 29.2785 14.064 29.0651 13.52C28.8625 12.976 28.7611 12.384 28.7611 11.744C28.7611 11.1147 28.8625 10.5333 29.0651 10C29.2785 9.456 29.5665 8.992 29.9291 8.608C30.3025 8.21333 30.7451 7.90933 31.2571 7.696C31.7691 7.472 32.3238 7.36 32.9211 7.36C33.4331 7.36 33.8865 7.44533 34.2811 7.616C34.6865 7.78667 35.0758 8.05867 35.4491 8.432V6.8C35.4491 6.192 35.4385 5.68533 35.4171 5.28C35.4065 4.87467 35.3851 4.59733 35.3531 4.448C35.2998 4.21333 35.1505 4.048 34.9051 3.952C34.6598 3.856 34.2598 3.808 33.7051 3.808V3.328L36.9851 2.72V11.952C36.9851 12.688 36.9905 13.296 37.0011 13.776C37.0118 14.2453 37.0438 14.5813 37.0971 14.784C37.1291 14.912 37.1665 15.0187 37.2091 15.104C37.2625 15.1893 37.3318 15.2587 37.4171 15.312C37.5131 15.3547 37.6358 15.3867 37.7851 15.408C37.9451 15.4293 38.1478 15.44 38.3931 15.44V15.984L35.7371 16.16V14.656ZM35.4171 11.12C35.4171 10.5653 35.3851 10.144 35.3211 9.856C35.2678 9.568 35.1558 9.31733 34.9851 9.104C34.7398 8.784 34.4251 8.544 34.0411 8.384C33.6678 8.21333 33.2945 8.128 32.9211 8.128C32.1531 8.128 31.5665 8.448 31.1611 9.088C30.7665 9.71733 30.5691 10.576 30.5691 11.664C30.5691 12.2293 30.6171 12.7413 30.7131 13.2C30.8198 13.6587 30.9691 14.0533 31.1611 14.384C31.3638 14.704 31.6091 14.9547 31.8971 15.136C32.1958 15.3067 32.5371 15.392 32.9211 15.392C33.1131 15.392 33.3051 15.3707 33.4971 15.328C33.6998 15.2853 33.8918 15.2213 34.0731 15.136C34.2651 15.04 34.4411 14.9333 34.6011 14.816C34.7611 14.688 34.8945 14.544 35.0011 14.384C35.1505 14.1493 35.2571 13.8667 35.3211 13.536C35.3851 13.2053 35.4171 12.752 35.4171 12.176V11.12ZM46.2958 13.456C46.2958 13.8933 46.3064 14.24 46.3278 14.496C46.3491 14.752 46.4024 14.9493 46.4878 15.088C46.5838 15.216 46.7171 15.3013 46.8878 15.344C47.0584 15.3867 47.2984 15.4187 47.6078 15.44V16H43.3518V15.44C43.6611 15.4293 43.9064 15.4027 44.0878 15.36C44.2691 15.3067 44.4078 15.216 44.5038 15.088C44.5998 14.96 44.6584 14.7787 44.6798 14.544C44.7118 14.2987 44.7278 13.9733 44.7278 13.568V11.696C44.7278 10.9707 44.7171 10.4053 44.6958 10C44.6851 9.59467 44.6318 9.296 44.5358 9.104C44.4504 8.912 44.3118 8.8 44.1198 8.768C43.9278 8.72533 43.6611 8.704 43.3198 8.704V8.144L46.1198 7.536L46.3438 9.52H46.4078C46.5464 9.2 46.7171 8.90667 46.9198 8.64C47.1331 8.37333 47.3624 8.14933 47.6078 7.968C47.8531 7.776 48.1091 7.62667 48.3758 7.52C48.6424 7.41333 48.9144 7.36 49.1918 7.36C49.5331 7.36 49.7998 7.44533 49.9918 7.616C50.1944 7.776 50.2958 7.99467 50.2958 8.272C50.2958 8.528 50.2158 8.73067 50.0558 8.88C49.8958 9.01867 49.6664 9.088 49.3678 9.088C49.1971 9.088 49.0531 9.06667 48.9358 9.024C48.8184 8.98133 48.7118 8.93867 48.6158 8.896C48.5304 8.84267 48.4451 8.79467 48.3598 8.752C48.2851 8.70933 48.1998 8.688 48.1038 8.688C47.8158 8.688 47.5278 8.87467 47.2398 9.248C46.9518 9.61067 46.7278 10.0747 46.5678 10.64C46.4824 10.9493 46.4131 11.3013 46.3598 11.696C46.3171 12.08 46.2958 12.4853 46.2958 12.912V13.456ZM58.2289 14.512C57.3222 15.6107 56.1969 16.16 54.8529 16.16C54.2235 16.16 53.6529 16.0587 53.1409 15.856C52.6289 15.6427 52.1862 15.3493 51.8129 14.976C51.4502 14.592 51.1675 14.1387 50.9649 13.616C50.7622 13.0827 50.6609 12.496 50.6609 11.856C50.6609 11.2053 50.7675 10.6027 50.9809 10.048C51.1942 9.49333 51.4929 9.01867 51.8769 8.624C52.2715 8.22933 52.7355 7.92 53.2689 7.696C53.8129 7.472 54.4049 7.36 55.0449 7.36C56.0795 7.36 56.8795 7.64267 57.4449 8.208C58.0102 8.76267 58.2929 9.56267 58.2929 10.608C58.2929 10.7573 58.2609 10.848 58.1969 10.88C58.1435 10.912 58.0102 10.928 57.7969 10.928H52.5329C52.5115 11.0133 52.4955 11.12 52.4849 11.248C52.4742 11.3653 52.4689 11.4987 52.4689 11.648C52.4689 12.2027 52.5329 12.7093 52.6609 13.168C52.7995 13.616 52.9915 14 53.2369 14.32C53.4929 14.64 53.7915 14.8907 54.1329 15.072C54.4849 15.2427 54.8742 15.328 55.3009 15.328C55.7489 15.328 56.1649 15.232 56.5489 15.04C56.9329 14.8373 57.3275 14.512 57.7329 14.064L58.2289 14.512ZM55.5889 10.192C55.8022 10.192 55.9729 10.1867 56.1009 10.176C56.2289 10.1653 56.3249 10.144 56.3889 10.112C56.4529 10.08 56.4955 10.0373 56.5169 9.984C56.5382 9.92 56.5489 9.84 56.5489 9.744C56.5489 9.25333 56.3889 8.864 56.0689 8.576C55.7595 8.27733 55.3329 8.128 54.7889 8.128C53.6369 8.128 52.9222 8.816 52.6449 10.192H55.5889ZM63.1128 12.56C63.5608 12.56 63.9074 12.3573 64.1528 11.952C64.4088 11.5467 64.5368 10.976 64.5368 10.24C64.5368 9.51467 64.4088 8.95467 64.1528 8.56C63.9074 8.15467 63.5554 7.952 63.0968 7.952C62.6381 7.952 62.2701 8.15467 61.9928 8.56C61.7261 8.96533 61.5928 9.52 61.5928 10.224C61.5928 10.928 61.7314 11.4933 62.0088 11.92C62.2861 12.3467 62.6541 12.56 63.1128 12.56ZM62.2328 14.432C62.4888 14.4533 62.7234 14.4747 62.9368 14.496C63.1501 14.5173 63.3581 14.5387 63.5608 14.56C63.7741 14.5813 63.9821 14.608 64.1848 14.64C64.3981 14.672 64.6274 14.704 64.8728 14.736C65.6408 14.8533 66.2541 15.152 66.7128 15.632C67.1821 16.1013 67.4168 16.6933 67.4168 17.408C67.4168 18.304 67.0594 18.9867 66.3448 19.456C65.6408 19.9253 64.6168 20.16 63.2728 20.16C62.6754 20.16 62.1261 20.1067 61.6248 20C61.1341 19.8933 60.7128 19.7387 60.3608 19.536C60.0088 19.344 59.7314 19.1093 59.5288 18.832C59.3368 18.5547 59.2408 18.2507 59.2408 17.92C59.2408 17.696 59.2781 17.488 59.3528 17.296C59.4274 17.104 59.5288 16.9333 59.6568 16.784C59.7848 16.6453 59.9341 16.5333 60.1048 16.448C60.2861 16.3627 60.4728 16.32 60.6648 16.32C61.0274 16.32 61.3528 16.432 61.6408 16.656C61.3528 16.72 61.1181 16.8747 60.9368 17.12C60.7554 17.376 60.6648 17.664 60.6648 17.984C60.6648 18.4533 60.8941 18.816 61.3528 19.072C61.8221 19.328 62.4834 19.456 63.3368 19.456C65.1608 19.456 66.0728 18.896 66.0728 17.776C66.0728 17.3493 65.9288 16.992 65.6408 16.704C65.3528 16.4267 65.0114 16.2613 64.6168 16.208C64.3608 16.176 64.0941 16.1387 63.8168 16.096C63.5501 16.064 63.2834 16.032 63.0168 16C62.7608 15.968 62.5208 15.9413 62.2968 15.92C62.0728 15.8987 61.8914 15.8773 61.7528 15.856C61.1554 15.792 60.7021 15.632 60.3928 15.376C60.0834 15.12 59.9288 14.768 59.9288 14.32C59.9288 13.9467 60.0834 13.616 60.3928 13.328C60.7021 13.04 61.0914 12.8587 61.5608 12.784V12.72C61.3261 12.624 61.1074 12.4907 60.9048 12.32C60.7021 12.1387 60.5261 11.936 60.3768 11.712C60.2381 11.488 60.1261 11.248 60.0408 10.992C59.9554 10.7253 59.9128 10.4533 59.9128 10.176C59.9128 9.77067 59.9874 9.39733 60.1368 9.056C60.2968 8.71467 60.5154 8.42133 60.7928 8.176C61.0808 7.92 61.4168 7.72267 61.8008 7.584C62.1848 7.43467 62.6061 7.36 63.0648 7.36C63.5341 7.36 63.9768 7.43467 64.3928 7.584C64.8088 7.72267 65.1661 7.93067 65.4648 8.208C65.8274 7.90933 66.1474 7.696 66.4248 7.568C66.7021 7.42933 66.9634 7.36 67.2088 7.36C67.5928 7.36 67.8968 7.45067 68.1208 7.632C68.3554 7.80267 68.4728 8.03733 68.4728 8.336C68.4728 8.51733 68.4088 8.66133 68.2808 8.768C68.1634 8.87467 68.0141 8.928 67.8328 8.928C67.6834 8.928 67.5608 8.90133 67.4648 8.848C67.3688 8.79467 67.2781 8.74133 67.1928 8.688C67.1181 8.624 67.0381 8.56533 66.9528 8.512C66.8674 8.45867 66.7608 8.432 66.6328 8.432C66.3768 8.432 66.1154 8.52267 65.8488 8.704C66.1048 9.09867 66.2328 9.59467 66.2328 10.192C66.2328 11.0987 65.9501 11.8133 65.3848 12.336C64.8194 12.848 63.9714 13.1467 62.8408 13.232C62.1901 13.2853 61.7368 13.3547 61.4808 13.44C61.2248 13.5253 61.0968 13.68 61.0968 13.904C61.0968 14.0747 61.1928 14.2027 61.3848 14.288C61.5768 14.3627 61.8594 14.4107 62.2328 14.432ZM73.5709 11.264C72.9629 11.4987 72.4455 11.728 72.0189 11.952C71.6029 12.176 71.2669 12.4 71.0109 12.624C70.7549 12.848 70.5682 13.072 70.4509 13.296C70.3442 13.52 70.2909 13.7493 70.2909 13.984C70.2909 14.336 70.4082 14.624 70.6429 14.848C70.8775 15.072 71.1869 15.184 71.5709 15.184C71.8482 15.184 72.1042 15.1147 72.3389 14.976C72.5842 14.8373 72.7975 14.6507 72.9789 14.416C73.1602 14.1707 73.3042 13.888 73.4109 13.568C73.5175 13.2373 73.5709 12.8907 73.5709 12.528V11.264ZM73.5709 10.576V9.92C73.5709 8.61867 73.0162 7.968 71.9069 7.968C71.7255 7.968 71.5709 7.984 71.4429 8.016C71.3149 8.048 71.2082 8.10133 71.1229 8.176C71.0375 8.25067 70.9575 8.35733 70.8829 8.496C70.8189 8.63467 70.7549 8.80533 70.6909 9.008C70.5735 9.31733 70.4562 9.52533 70.3389 9.632C70.2322 9.728 70.0722 9.776 69.8589 9.776C69.3255 9.776 69.0589 9.50933 69.0589 8.976C69.0589 8.464 69.3309 8.06933 69.8749 7.792C70.4189 7.504 71.1922 7.36 72.1949 7.36C73.2615 7.36 74.0189 7.552 74.4669 7.936C74.9149 8.30933 75.1389 8.94933 75.1389 9.856V13.44C75.1389 14.656 75.3789 15.264 75.8589 15.264C76.0082 15.264 76.1522 15.248 76.2909 15.216C76.4295 15.1733 76.5469 15.072 76.6429 14.912L76.8669 15.296C76.7389 15.5413 76.5042 15.7493 76.1629 15.92C75.8215 16.08 75.4642 16.16 75.0909 16.16C74.6215 16.16 74.2695 16.0107 74.0349 15.712C73.8109 15.4133 73.6989 14.992 73.6989 14.448H73.6189C73.3415 14.9707 72.9575 15.3867 72.4669 15.696C71.9762 15.9947 71.4322 16.144 70.8349 16.144C70.1629 16.144 69.6349 15.9733 69.2509 15.632C68.8669 15.2907 68.6749 14.832 68.6749 14.256C68.6749 14 68.7175 13.7547 68.8029 13.52C68.8989 13.2853 69.0482 13.0613 69.2509 12.848C69.4535 12.6347 69.7202 12.4267 70.0509 12.224C70.3815 12.0107 70.7869 11.7973 71.2669 11.584L73.5709 10.576ZM80.0783 13.456C80.0783 13.8933 80.0889 14.24 80.1103 14.496C80.1316 14.752 80.1849 14.9493 80.2703 15.088C80.3663 15.216 80.4996 15.3013 80.6703 15.344C80.8409 15.3867 81.0809 15.4187 81.3903 15.44V16H77.1343V15.44C77.4436 15.4293 77.6889 15.4027 77.8703 15.36C78.0516 15.3067 78.1903 15.216 78.2863 15.088C78.3823 14.96 78.4409 14.7787 78.4623 14.544C78.4943 14.2987 78.5103 13.9733 78.5103 13.568V11.696C78.5103 10.9707 78.4996 10.4053 78.4783 10C78.4676 9.59467 78.4143 9.296 78.3183 9.104C78.2329 8.912 78.0943 8.8 77.9023 8.768C77.7103 8.72533 77.4436 8.704 77.1023 8.704V8.144L79.9023 7.536L80.1263 9.52H80.1903C80.3289 9.2 80.4996 8.90667 80.7023 8.64C80.9156 8.37333 81.1449 8.14933 81.3903 7.968C81.6356 7.776 81.8916 7.62667 82.1583 7.52C82.4249 7.41333 82.6969 7.36 82.9743 7.36C83.3156 7.36 83.5823 7.44533 83.7743 7.616C83.9769 7.776 84.0783 7.99467 84.0783 8.272C84.0783 8.528 83.9983 8.73067 83.8383 8.88C83.6783 9.01867 83.4489 9.088 83.1503 9.088C82.9796 9.088 82.8356 9.06667 82.7183 9.024C82.6009 8.98133 82.4943 8.93867 82.3983 8.896C82.3129 8.84267 82.2276 8.79467 82.1423 8.752C82.0676 8.70933 81.9823 8.688 81.8863 8.688C81.5983 8.688 81.3103 8.87467 81.0223 9.248C80.7343 9.61067 80.5103 10.0747 80.3503 10.64C80.2649 10.9493 80.1956 11.3013 80.1423 11.696C80.0996 12.08 80.0783 12.4853 80.0783 12.912V13.456ZM91.419 14.656H91.355C90.971 15.2 90.5603 15.5893 90.123 15.824C89.6963 16.048 89.1897 16.16 88.603 16.16C87.995 16.16 87.435 16.0533 86.923 15.84C86.4217 15.616 85.9843 15.312 85.611 14.928C85.2483 14.5333 84.9603 14.064 84.747 13.52C84.5443 12.976 84.443 12.384 84.443 11.744C84.443 11.1147 84.5443 10.5333 84.747 10C84.9603 9.456 85.2483 8.992 85.611 8.608C85.9843 8.21333 86.427 7.90933 86.939 7.696C87.451 7.472 88.0057 7.36 88.603 7.36C89.115 7.36 89.5683 7.44533 89.963 7.616C90.3683 7.78667 90.7577 8.05867 91.131 8.432V6.8C91.131 6.192 91.1203 5.68533 91.099 5.28C91.0883 4.87467 91.067 4.59733 91.035 4.448C90.9817 4.21333 90.8323 4.048 90.587 3.952C90.3417 3.856 89.9417 3.808 89.387 3.808V3.328L92.667 2.72V11.952C92.667 12.688 92.6723 13.296 92.683 13.776C92.6937 14.2453 92.7257 14.5813 92.779 14.784C92.811 14.912 92.8483 15.0187 92.891 15.104C92.9443 15.1893 93.0137 15.2587 93.099 15.312C93.195 15.3547 93.3177 15.3867 93.467 15.408C93.627 15.4293 93.8297 15.44 94.075 15.44V15.984L91.419 16.16V14.656ZM91.099 11.12C91.099 10.5653 91.067 10.144 91.003 9.856C90.9497 9.568 90.8377 9.31733 90.667 9.104C90.4217 8.784 90.107 8.544 89.723 8.384C89.3497 8.21333 88.9763 8.128 88.603 8.128C87.835 8.128 87.2483 8.448 86.843 9.088C86.4483 9.71733 86.251 10.576 86.251 11.664C86.251 12.2293 86.299 12.7413 86.395 13.2C86.5017 13.6587 86.651 14.0533 86.843 14.384C87.0457 14.704 87.291 14.9547 87.579 15.136C87.8777 15.3067 88.219 15.392 88.603 15.392C88.795 15.392 88.987 15.3707 89.179 15.328C89.3817 15.2853 89.5737 15.2213 89.755 15.136C89.947 15.04 90.123 14.9333 90.283 14.816C90.443 14.688 90.5763 14.544 90.683 14.384C90.8323 14.1493 90.939 13.8667 91.003 13.536C91.067 13.2053 91.099 12.752 91.099 12.176V11.12ZM95.5279 16H95.1759V13.248H95.5759C95.9919 14.752 96.7492 15.504 97.8479 15.504C98.2745 15.504 98.6105 15.4027 98.8559 15.2C99.1119 14.9867 99.2399 14.6667 99.2399 14.24C99.2399 14.08 99.2132 13.9467 99.1599 13.84C99.1172 13.7227 99.0265 13.6053 98.8879 13.488C98.7599 13.36 98.5732 13.216 98.3279 13.056C98.0932 12.896 97.7785 12.6933 97.3839 12.448C97.0212 12.224 96.7065 12.016 96.4399 11.824C96.1732 11.632 95.9492 11.44 95.7679 11.248C95.5865 11.0453 95.4479 10.832 95.3519 10.608C95.2665 10.384 95.2239 10.1227 95.2239 9.824C95.2239 9.46133 95.2825 9.13067 95.3999 8.832C95.5279 8.52267 95.6985 8.26133 95.9119 8.048C96.1252 7.83467 96.3759 7.66933 96.6639 7.552C96.9519 7.424 97.2665 7.36 97.6079 7.36C97.8959 7.36 98.1945 7.408 98.5039 7.504C98.8132 7.58933 99.0852 7.70667 99.3199 7.856L99.6399 7.52H99.9439V9.824H99.5279C99.2932 9.17333 99.0372 8.70933 98.7599 8.432C98.4825 8.15467 98.1412 8.016 97.7359 8.016C97.3732 8.016 97.0799 8.112 96.8559 8.304C96.6425 8.496 96.5359 8.76267 96.5359 9.104C96.5359 9.28533 96.5625 9.44533 96.6159 9.584C96.6799 9.712 96.7759 9.84 96.9039 9.968C97.0319 10.096 97.1919 10.2293 97.3839 10.368C97.5865 10.496 97.8265 10.6453 98.1039 10.816C98.5625 11.104 98.9519 11.36 99.2719 11.584C99.6025 11.808 99.8692 12.032 100.072 12.256C100.275 12.4693 100.424 12.6933 100.52 12.928C100.616 13.1627 100.664 13.4293 100.664 13.728C100.664 14.4853 100.419 15.0827 99.9279 15.52C99.4372 15.9467 98.7919 16.16 97.9919 16.16C97.1599 16.16 96.4452 15.92 95.8479 15.44L95.5279 16ZM101.882 18.288C102.458 17.8827 102.868 17.4933 103.114 17.12C103.359 16.7467 103.482 16.3307 103.482 15.872C103.343 15.9573 103.183 16 103.002 16C102.756 16 102.554 15.9147 102.394 15.744C102.244 15.5627 102.17 15.3333 102.17 15.056C102.17 14.7573 102.266 14.5173 102.458 14.336C102.66 14.1547 102.922 14.064 103.242 14.064C104.01 14.064 104.394 14.5973 104.394 15.664C104.394 15.9627 104.356 16.24 104.282 16.496C104.207 16.752 104.084 17.0027 103.914 17.248C103.754 17.4933 103.535 17.7387 103.258 17.984C102.98 18.24 102.644 18.512 102.25 18.8L101.882 18.288ZM4.16 27.232C4.736 27.232 5.216 27.2 5.6 27.136C5.99467 27.0613 6.304 26.9493 6.528 26.8C6.76267 26.6507 6.928 26.4587 7.024 26.224C7.13067 25.9893 7.184 25.712 7.184 25.392H7.744V29.76H7.184C7.184 29.44 7.136 29.1627 7.04 28.928C6.95467 28.6933 6.79467 28.5013 6.56 28.352C6.336 28.192 6.02667 28.0747 5.632 28C5.248 27.9147 4.75733 27.872 4.16 27.872V31.488C4.16 31.84 4.20267 32.1333 4.288 32.368C4.37333 32.592 4.51733 32.7787 4.72 32.928C4.93333 33.0667 5.21067 33.168 5.552 33.232C5.89333 33.2853 6.31467 33.312 6.816 33.312C7.38133 33.312 7.86133 33.2747 8.256 33.2C8.65067 33.1147 8.98133 32.976 9.248 32.784C9.51467 32.592 9.728 32.3413 9.888 32.032C10.048 31.712 10.1813 31.3173 10.288 30.848H10.896L10.656 34H0.72V33.392C1.09333 33.3813 1.392 33.3493 1.616 33.296C1.85067 33.2427 2.032 33.152 2.16 33.024C2.288 32.896 2.37333 32.7147 2.416 32.48C2.45867 32.2453 2.48 31.9413 2.48 31.568V24.112C2.48 23.7387 2.45867 23.44 2.416 23.216C2.384 22.9813 2.30933 22.8 2.192 22.672C2.08533 22.5333 1.92533 22.4427 1.712 22.4C1.49867 22.3467 1.22133 22.3093 0.88 22.288V21.68H10.128L10.272 24.496H9.712C9.648 24.0693 9.54133 23.7227 9.392 23.456C9.25333 23.1787 9.056 22.96 8.8 22.8C8.55467 22.64 8.24 22.528 7.856 22.464C7.472 22.4 7.008 22.368 6.464 22.368H4.432C4.25067 22.368 4.16 22.4587 4.16 22.64V27.232ZM16.8734 29.264C16.2654 29.4987 15.748 29.728 15.3214 29.952C14.9054 30.176 14.5694 30.4 14.3134 30.624C14.0574 30.848 13.8707 31.072 13.7534 31.296C13.6467 31.52 13.5934 31.7493 13.5934 31.984C13.5934 32.336 13.7107 32.624 13.9454 32.848C14.18 33.072 14.4894 33.184 14.8734 33.184C15.1507 33.184 15.4067 33.1147 15.6414 32.976C15.8867 32.8373 16.1 32.6507 16.2814 32.416C16.4627 32.1707 16.6067 31.888 16.7134 31.568C16.82 31.2373 16.8734 30.8907 16.8734 30.528V29.264ZM16.8734 28.576V27.92C16.8734 26.6187 16.3187 25.968 15.2094 25.968C15.028 25.968 14.8734 25.984 14.7454 26.016C14.6174 26.048 14.5107 26.1013 14.4254 26.176C14.34 26.2507 14.26 26.3573 14.1854 26.496C14.1214 26.6347 14.0574 26.8053 13.9934 27.008C13.876 27.3173 13.7587 27.5253 13.6414 27.632C13.5347 27.728 13.3747 27.776 13.1614 27.776C12.628 27.776 12.3614 27.5093 12.3614 26.976C12.3614 26.464 12.6334 26.0693 13.1774 25.792C13.7214 25.504 14.4947 25.36 15.4974 25.36C16.564 25.36 17.3214 25.552 17.7694 25.936C18.2174 26.3093 18.4414 26.9493 18.4414 27.856V31.44C18.4414 32.656 18.6814 33.264 19.1614 33.264C19.3107 33.264 19.4547 33.248 19.5934 33.216C19.732 33.1733 19.8494 33.072 19.9454 32.912L20.1694 33.296C20.0414 33.5413 19.8067 33.7493 19.4654 33.92C19.124 34.08 18.7667 34.16 18.3934 34.16C17.924 34.16 17.572 34.0107 17.3374 33.712C17.1134 33.4133 17.0014 32.992 17.0014 32.448H16.9214C16.644 32.9707 16.26 33.3867 15.7694 33.696C15.2787 33.9947 14.7347 34.144 14.1374 34.144C13.4654 34.144 12.9374 33.9733 12.5534 33.632C12.1694 33.2907 11.9774 32.832 11.9774 32.256C11.9774 32 12.02 31.7547 12.1054 31.52C12.2014 31.2853 12.3507 31.0613 12.5534 30.848C12.756 30.6347 13.0227 30.4267 13.3534 30.224C13.684 30.0107 14.0894 29.7973 14.5694 29.584L16.8734 28.576ZM23.3808 31.456C23.3808 31.8933 23.3914 32.24 23.4128 32.496C23.4341 32.752 23.4874 32.9493 23.5728 33.088C23.6688 33.216 23.8021 33.3013 23.9728 33.344C24.1434 33.3867 24.3834 33.4187 24.6928 33.44V34H20.4368V33.44C20.7461 33.4293 20.9914 33.4027 21.1728 33.36C21.3541 33.3067 21.4928 33.216 21.5888 33.088C21.6848 32.96 21.7434 32.7787 21.7648 32.544C21.7968 32.2987 21.8128 31.9733 21.8128 31.568V29.696C21.8128 28.9707 21.8021 28.4053 21.7808 28C21.7701 27.5947 21.7168 27.296 21.6208 27.104C21.5354 26.912 21.3968 26.8 21.2048 26.768C21.0128 26.7253 20.7461 26.704 20.4048 26.704V26.144L23.2048 25.536L23.4288 27.52H23.4928C23.6314 27.2 23.8021 26.9067 24.0048 26.64C24.2181 26.3733 24.4474 26.1493 24.6928 25.968C24.9381 25.776 25.1941 25.6267 25.4608 25.52C25.7274 25.4133 25.9994 25.36 26.2768 25.36C26.6181 25.36 26.8848 25.4453 27.0768 25.616C27.2794 25.776 27.3808 25.9947 27.3808 26.272C27.3808 26.528 27.3008 26.7307 27.1408 26.88C26.9808 27.0187 26.7514 27.088 26.4528 27.088C26.2821 27.088 26.1381 27.0667 26.0208 27.024C25.9034 26.9813 25.7968 26.9387 25.7008 26.896C25.6154 26.8427 25.5301 26.7947 25.4448 26.752C25.3701 26.7093 25.2848 26.688 25.1888 26.688C24.9008 26.688 24.6128 26.8747 24.3248 27.248C24.0368 27.6107 23.8128 28.0747 23.6528 28.64C23.5674 28.9493 23.4981 29.3013 23.4448 29.696C23.4021 30.08 23.3808 30.4853 23.3808 30.912V31.456ZM27.7738 26.528V25.936C28.3391 25.6053 28.7818 25.2747 29.1018 24.944C29.4218 24.6133 29.6671 24.2187 29.8378 23.76H30.3018V25.776H32.4458V26.528H30.3018V31.392C30.3018 31.7653 30.3178 32.08 30.3498 32.336C30.3924 32.592 30.4564 32.8 30.5418 32.96C30.6271 33.1093 30.7391 33.216 30.8778 33.28C31.0164 33.344 31.1924 33.376 31.4058 33.376C31.6724 33.376 31.8964 33.3227 32.0778 33.216C32.2698 33.0987 32.4564 32.9067 32.6378 32.64L33.0378 32.944C32.8884 33.3387 32.6271 33.6427 32.2538 33.856C31.8911 34.0587 31.4378 34.16 30.8938 34.16C30.1898 34.16 29.6511 33.9947 29.2778 33.664C28.9151 33.3227 28.7338 32.8373 28.7338 32.208V26.528H27.7738ZM36.1886 31.456C36.1886 31.8933 36.1993 32.24 36.2206 32.496C36.242 32.752 36.2953 32.9493 36.3806 33.088C36.4766 33.216 36.61 33.3013 36.7806 33.344C36.9513 33.3867 37.1913 33.4187 37.5006 33.44V34H33.2446V33.44C33.554 33.4187 33.7993 33.3867 33.9806 33.344C34.162 33.3013 34.3006 33.216 34.3966 33.088C34.4926 32.96 34.5513 32.7787 34.5726 32.544C34.6046 32.2987 34.6206 31.9733 34.6206 31.568V24.864C34.6206 24.2347 34.61 23.7333 34.5886 23.36C34.578 22.9867 34.5513 22.704 34.5086 22.512C34.4873 22.384 34.45 22.2827 34.3966 22.208C34.354 22.1227 34.2846 22.0587 34.1886 22.016C34.0926 21.9627 33.9646 21.9253 33.8046 21.904C33.6446 21.8827 33.4473 21.872 33.2126 21.872V21.328L36.1566 20.72V26.816H36.2206C36.3806 26.6027 36.578 26.4107 36.8126 26.24C37.058 26.0587 37.3193 25.904 37.5966 25.776C37.874 25.648 38.162 25.5467 38.4606 25.472C38.77 25.3973 39.0686 25.36 39.3566 25.36C39.8473 25.36 40.2953 25.4453 40.7006 25.616C41.1166 25.7867 41.4366 26.016 41.6606 26.304C41.842 26.5493 41.9753 26.8747 42.0606 27.28C42.146 27.6747 42.1886 28.2133 42.1886 28.896V31.456C42.1886 31.8933 42.1993 32.24 42.2206 32.496C42.242 32.7413 42.2953 32.9333 42.3806 33.072C42.4766 33.2107 42.61 33.3013 42.7806 33.344C42.9513 33.3867 43.1913 33.4187 43.5006 33.44V34H39.2606V33.44C39.5593 33.4293 39.7993 33.4027 39.9806 33.36C40.162 33.3067 40.2953 33.216 40.3806 33.088C40.4766 32.96 40.5353 32.7787 40.5566 32.544C40.5886 32.2987 40.6046 31.9733 40.6046 31.568V29.552C40.6046 28.3573 40.466 27.5093 40.1886 27.008C39.9113 26.496 39.4473 26.24 38.7966 26.24C38.2953 26.24 37.8366 26.368 37.4206 26.624C37.0153 26.88 36.6953 27.232 36.4606 27.68C36.4073 27.7973 36.3593 27.9093 36.3166 28.016C36.2846 28.112 36.258 28.224 36.2366 28.352C36.2153 28.48 36.1993 28.6293 36.1886 28.8C36.1886 28.96 36.1886 29.1627 36.1886 29.408V31.456Z" transform="translate(66 7)" fill="black"/>
<path d="M17.0565 40.6876C17.0565 40.6876 24.2533 41.4951 34.0409 34.5555C30.0491 34.3845 26.4267 33.8573 26.1532 33.197C27.8517 34.0188 31.4309 34.0378 35.0197 33.8478C37.1071 32.2735 39.0747 30.5494 40.9067 28.6894C51.4189 18.0496 46.122 2.38413e-10 46.122 2.38413e-10C44.0018 3.86348 41.1071 7.25772 37.6154 9.97479C36.1428 11.0942 34.596 12.1146 32.9854 13.029C31.9077 14.719 31.0986 16.5629 30.5865 18.4961C30.9226 16.8101 31.414 15.1582 32.0546 13.561C18.8317 20.8141 3.20018 22.733 9.7157 37.7427C7.88771 33.8288 7.38873 33.8098 5.96856 31.5678C5.96856 31.5678 6.44835 33.8858 6.73622 35.2917C7.21601 37.4482 9.30308 38.8637 9.30308 38.8637L-3.05345e-10 45.6988L0.820437 46.815L10.0276 39.9276C10.0276 39.9276 12.6376 42.8156 19.5513 42.9533C17.9154 41.8209 16.1719 40.849 14.3457 40.0511L17.0565 40.6876ZM28.1491 23.417L40.1966 15.1474L39.3138 15.9312C38.028 16.9524 37.1883 17.5414 35.7922 18.5294C32.7551 20.6716 29.5549 22.6855 26.9401 24.88C19.5657 31.1071 11.5869 37.6619 11.5869 37.6619C11.5869 37.6619 22.7899 27.4972 28.1491 23.417Z" fill="black"/>
</svg>
