<svg width="48" height="47" viewBox="0 0 48 47" fill="none" xmlns="http://www.w3.org/2000/svg">
<path d="M18 40.5C18 40.5 23.7123 41.9396 33.5 35C29.5082 34.829 26.4267 33.8573 26.1532 33.197C27.8517 34.0188 31.9803 33.6522 35.5 33.5C37.5874 31.9257 39.0747 30.5494 40.9067 28.6894C51.4189 18.0496 46.122 0 46.122 0C44.0018 3.86348 41.1071 7.25772 37.6154 9.97479C36.1428 11.0942 36.1106 11.5856 34.5 12.5C33.4223 14.19 32.4135 16.5039 31.5 18.5C31.8361 16.814 30.8594 15.0972 31.5 13.5C18.2771 20.7531 3.20018 22.733 9.7157 37.7427C7 34.5 6.42017 33.242 5 31C5 31 5.21213 33.094 5.5 34.5C5.97979 36.6565 9.30308 38.8637 9.30308 38.8637L0 45.6988L0.820437 46.815L10.0276 39.9276C10.0276 39.9276 12.5863 43.3623 19.5 43.5C17.864 42.3676 16.1719 40.849 14.3457 40.0511L18 40.5ZM27.5 23L40.1966 15.1474L39.3138 15.9312C38.028 16.9524 37.1883 17.5414 35.7922 18.5294C32.7551 20.6716 30.1148 23.3055 27.5 25.5C20.1257 31.7271 11.5869 37.6619 11.5869 37.6619C11.5869 37.6619 22.1408 27.0802 27.5 23Z" fill="white"/>
</svg>
